<?xml version="1.0" standalone="no"?><!DOCTYPE svg PUBLIC "-//W3C//DTD SVG 1.1//EN" "http://www.w3.org/Graphics/SVG/1.1/DTD/svg11.dtd"><svg t="1764323055364" class="icon" viewBox="0 0 1024 1024" version="1.1" xmlns="http://www.w3.org/2000/svg" p-id="19530" xmlns:xlink="http://www.w3.org/1999/xlink" width="16" height="16"><path d="M219.5456 857.2416h129.792c18.176 0 30.208 12.1344 30.208 30.208 0 18.1248-12.0832 30.208-30.208 30.208H219.5456c-54.3232 0-96.6144-42.2912-96.6144-93.5936V195.9936C122.88 144.6912 165.1712 102.4 219.4944 102.4h531.456c54.3232 0 96.6144 42.2912 96.6144 93.5936v147.968c0 18.1248-12.032 30.208-30.1568 30.208s-30.208-12.0832-30.208-30.208v-147.968c0-18.0736-15.0528-33.1776-36.1984-33.1776H219.5456c-21.0944 0-36.1984 15.104-36.1984 33.1776v628.0704c0 18.1248 15.104 33.1776 36.1984 33.1776z m439.9616-603.648c19.3024 0 35.3792 12.9024 35.3792 32.2048s-16.0768 32.2048-35.328 32.2048H304.128c-19.3536 0-35.4304-12.9024-35.4304-32.2048s16.0768-32.2048 35.4304-32.2048h355.328z m-390.656 227.328c0-19.2512 13.5168-32.1536 29.8496-32.1536h221.184c16.384 0 29.952 12.8512 29.952 32.2048 0 19.3024-13.568 32.1536-29.9008 32.1536h-221.184c-16.3328 0-29.952-12.9024-29.952-32.1536z m32.0512 163.0208h64.3584c19.3536 0 32.2048 12.8512 32.2048 32.1536s-12.8512 32.2048-32.2048 32.2048H300.9024c-19.3024 0-32.1536-12.9024-32.1536-32.2048s12.8512-32.1536 32.1536-32.1536z" p-id="19531"></path><path d="M625.2544 717.7216c0-50.7392 40.96-91.904 91.4432-91.904a91.648 91.648 0 0 1 91.4944 91.904c0 50.7392-40.96 91.904-91.4944 91.904a91.648 91.648 0 0 1-91.4432-91.904z m91.4432-40.0896a39.936 39.936 0 0 0-39.8336 40.0896 39.936 39.936 0 0 0 39.8336 40.0896c22.016 0 39.936-17.92 39.936-40.0896a39.936 39.936 0 0 0-39.936-40.0896z" p-id="19532" data-spm-anchor-id="a313x.search_index.0.i28.69913a813pm52P" class="selected" fill="#4366b0"></path><path d="M854.016 830.9248a51.968 51.968 0 0 1-21.504 66.6624l-33.9456 19.3024a51.4048 51.4048 0 0 1-62.6688-9.3184l-9.3184-9.728a34.304 34.304 0 0 0-6.4512-3.4816 11.5712 11.5712 0 0 0-4.4032-0.7168 16.4864 16.4864 0 0 0-3.84 1.024 51.6096 51.6096 0 0 0-8.8576 4.352 120.2176 120.2176 0 0 1-2.2528 2.048l-0.4608 0.3584-0.1536 0.1536c-15.6672 22.3744-45.8752 28.672-69.12 14.4384l-31.3856-19.3024a51.968 51.968 0 0 1-20.5312-64.6144c0.512-1.536 0.8704-3.072 1.0752-4.608v-0.3072a33.2288 33.2288 0 0 0-7.3728-20.992 26.3168 26.3168 0 0 0-16.4864-9.5744A51.712 51.712 0 0 1 512 745.3184v-54.9376c0-25.8048 18.8928-47.7184 44.288-51.3536 12.6976-1.792 23.8592-11.9296 23.9616-30.8224l-0.0512-0.512a26.4704 26.4704 0 0 0-0.512-2.9184 51.968 51.968 0 0 1 21.4016-66.6624l33.8944-19.3536a51.4048 51.4048 0 0 1 64.4096 11.008 33.536 33.536 0 0 0 1.1264 1.0752l3.0208 2.048a50.176 50.176 0 0 0 11.4688 6.5024 42.496 42.496 0 0 0 9.472-5.0176c3.8912-3.4816 7.2192-5.9904 9.1648-7.4752l0.512-0.3584a51.4048 51.4048 0 0 1 61.2864-7.7824l33.8944 19.3536c22.8864 13.056 32.3072 41.3184 21.8624 65.6384v0.1024l-0.0512 0.1024-0.0512 0.1536a28.5184 28.5184 0 0 0-1.024 4.1984v0.1536a33.28 33.28 0 0 0 7.424 20.992c4.608 5.5808 10.5984 8.704 16.5376 9.5744 24.32 3.4816 42.8032 23.6544 44.2368 48.2816l3.2256 54.9376c1.5872 26.9824-17.664 50.6368-44.288 54.3744-12.6464 1.792-23.7568 11.8272-23.8592 30.72l0.0512 0.512a26.9312 26.9312 0 0 0 0.3584 2.1504l0.0512 0.256 0.1024 0.3072 0.1024 0.3584z m-241.5616-57.9584a85.0432 85.0432 0 0 1 19.3536 54.6304c0 8.5504-2.8672 19.3024-5.2736 24.8832l31.3856 19.3024a15.7696 15.7696 0 0 1 2.816-4.2496c1.3824-1.536 3.072-2.9184 4.8128-4.4544a70.656 70.656 0 0 0 5.4784-5.0176c3.072-2.048 6.1952-3.9936 9.4208-5.7856 12.5952-6.912 24.576-10.496 35.1232-10.496 13.568 0 25.0368 3.6864 37.7344 11.6736 2.304 1.4848 4.608 3.0208 6.8096 4.608l13.056 13.7216 33.9456-19.3024a68.3008 68.3008 0 0 1-5.3248-24.9344v-0.7168c0.3072-43.3664 29.2352-75.9808 68.2496-81.5104l-3.2256-54.9376a77.9264 77.9264 0 0 1-48.896-27.6992 85.2992 85.2992 0 0 1-19.456-54.6816v-0.4096a68.864 68.864 0 0 1 5.376-24.4224l-33.8944-19.3536a20.6336 20.6336 0 0 1-3.1744 2.9184l-1.792 1.3312a63.0272 63.0272 0 0 0-8.192 6.9632 157.7472 157.7472 0 0 1-5.7856 3.84c-13.056 8.192-24.4224 12.4416-35.84 12.4416-11.264 0-22.6816-3.8912-35.584-12.1344a140.8 140.8 0 0 1-6.0928-4.1472 57.344 57.344 0 0 1-11.9296-10.0352l-1.1264-1.1776-33.8944 19.3536a45.9776 45.9776 0 0 1 3.328 9.7792c1.1776 4.9664 1.9456 10.496 1.9456 15.0528v0.1536c-0.0512 43.6736-29.1328 76.5952-68.2496 82.2272v54.9376c18.944 2.6624 36.352 12.4928 48.896 27.648z m102.0416-233.472h0.1024-0.1024z m0.8704 0h0.0512-0.0512z" p-id="19533" data-spm-anchor-id="a313x.search_index.0.i26.69913a813pm52P" class="selected" fill="#4366b0"></path></svg>