<?xml version="1.0" standalone="no"?><!DOCTYPE svg PUBLIC "-//W3C//DTD SVG 1.1//EN" "http://www.w3.org/Graphics/SVG/1.1/DTD/svg11.dtd"><svg t="1763428957229" class="icon" viewBox="0 0 1041 1024" version="1.1" xmlns="http://www.w3.org/2000/svg" p-id="11610" xmlns:xlink="http://www.w3.org/1999/xlink" width="16.265625" height="16"><path d="M554.77489 888.909937a415.228753 415.228753 0 0 1-76.637632 8.226638h-28.143763a397.909514 397.909514 0 0 1-149.378436-38.968287l12.123468-11.690487c16.020296-15.154334 32.906554-29.875687 49.792811-43.298097l19.051163-16.020296q16.886258-14.288372 35.071459-27.277801l16.453277-12.556448c17.75222-12.989429 35.50444-25.112896 53.689641-37.236364a29.442706 29.442706 0 0 0-10.391544-54.988584 31.607611 31.607611 0 0 0-21.649048 3.896829c-19.484144 12.989429-38.968288 25.978858-57.58647 39.83425l-18.618182 14.288372c-12.123467 9.525581-24.679915 18.618182-36.803382 28.576744l-21.216068 18.185201-31.607611 27.710782-21.649049 20.350106-20.350105 19.051163a413.92981 413.92981 0 0 1-129.894292-142.883721 1245.253277 1245.253277 0 0 1 115.172939-200.470191l19.917124 9.958563 22.947992 11.257505 33.772516 15.154334 22.51501 9.958562c12.123467 5.195772 24.679915 9.958562 37.669345 14.721353 6.494715 2.597886 12.556448 5.195772 19.484144 7.360677 19.051163 6.927696 38.535307 13.42241 57.586469 19.484144h15.587315a19.051163 19.051163 0 0 0 6.494715-3.463848 22.947992 22.947992 0 0 0 5.628752-5.628753 29.442706 29.442706 0 0 0 3.463848-25.978858 28.576744 28.576744 0 0 0-19.051163-18.185201c-18.185201-5.628753-36.370402-11.690486-54.122621-18.185201l-18.185201-6.927695-29.442706-17.75222-20.783087-9.092601-53.25666-24.679915-13.42241-6.927696v-2.597885c12.989429-16.886258 26.411839-33.339535 40.700212-49.359831l8.659619-9.525582q21.649049-24.679915 43.298097-48.060888c15.154334-15.154334 30.741649-29.875687 46.328965-43.298097l9.0926-8.226638q23.813953-21.216068 49.359831-43.298098l9.958562-2.164904a1298.942918 1298.942918 0 0 1 80.534461 160.63594 28.576744 28.576744 0 0 0 49.359831 5.628753 28.576744 28.576744 0 0 0 3.030867-29.442706 1243.954334 1243.954334 0 0 0-89.194081-173.192389 1270.366173 1270.366173 0 0 1 139.852855-88.7611A415.228753 415.228753 0 0 1 866.088209 353.312474a30.308668 30.308668 0 0 0 21.216068 20.783086 29.009725 29.009725 0 0 0 27.710782-9.0926 29.442706 29.442706 0 0 0 6.494715-29.009725A471.083298 471.083298 0 0 0 377.685672 9.525581 476.27907 476.27907 0 0 0 2.72415 526.071882a473.248203 473.248203 0 0 0 468.918393 429.950105h32.473573a471.516279 471.516279 0 0 0 55.421565-6.061733l6.494714-2.164905a29.442706 29.442706 0 0 0-11.690486-57.58647zM83.691592 623.059619A416.094715 416.094715 0 0 1 69.40322 381.023256a1259.97463 1259.97463 0 0 0 112.575053 74.039746 1376.879493 1376.879493 0 0 0-98.719662 167.130656z m303.086681-395.311627l-9.525582 8.659619c-17.75222 16.020296-35.071459 32.906554-52.390697 49.792812-16.453277 16.886258-32.906554 34.205497-48.493869 52.390698l-7.793658 8.659619c-15.154334 17.75222-29.875687 35.50444-43.298097 54.122622l-8.659619 6.927695a1243.954334 1243.954334 0 0 1-121.234673-79.668499 414.362791 414.362791 0 0 1 274.509937-246.799154l4.762791 6.061733c9.958562 12.123467 19.484144 24.246934 29.009725 36.803383a32.906554 32.906554 0 0 0 5.195771 4.32981l30.74165 43.298097 3.030866 4.762791-4.76279 3.896829c-18.185201 14.721353-35.937421 29.442706-53.25666 43.298097z m102.61649-84.43129a32.906554 32.906554 0 0 1-3.463847-4.762791l-14.288373-19.917125c-3.896829-5.628753-7.360677-10.824524-11.690486-16.020296l-15.154334-20.783086-11.690486-12.123467a401.806342 401.806342 0 0 1 147.213531 12.123467c-31.607611 19.051163-62.782241 39.834249-92.657929 61.483298z" fill="#666666" p-id="11611"></path><path d="M1004.20914 452.898097l-209.12981-86.596194a59.751374 59.751374 0 0 0-40.700211 0l-209.12981 86.596194a56.287526 56.287526 0 0 0-34.205497 52.390698v61.483298a519.577167 519.577167 0 0 0 219.954334 438.176744l3.463848 2.597886 9.0926 5.628753a60.617336 60.617336 0 0 0 62.782241 0l8.65962-5.628753 3.463847-2.597886A519.577167 519.577167 0 0 0 1039.280598 567.205074v-61.916279a55.854545 55.854545 0 0 0-34.205496-52.390698z m-23.813954 113.873996a458.959831 458.959831 0 0 1-192.676533 389.682875l-4.76279 3.030867-6.061734 3.896829-6.494714-3.896829-4.762791-3.030867a460.258774 460.258774 0 0 1-192.676533-389.682875v-59.751374l205.665962-86.596195 205.665962 86.596195v60.184355z" fill="#4366b0" p-id="11612" data-spm-anchor-id="a313x.search_index.0.i15.4e1a3a81L5XDfC" class="selected"></path><path d="M754.379119 572.833827v65.813107H688.566011a29.009725 29.009725 0 0 0 0 58.019451h65.813108v65.813108a28.576744 28.576744 0 0 0 28.576744 28.576744 29.009725 29.009725 0 0 0 29.009725-28.576744v-65.813108h65.813108a29.009725 29.009725 0 1 0 0-58.019451h-65.813108v-65.813107a29.009725 29.009725 0 0 0-29.009725-29.009726 28.576744 28.576744 0 0 0-28.576744 29.009726z" fill="#4366b0" p-id="11613" data-spm-anchor-id="a313x.search_index.0.i19.4e1a3a81L5XDfC" class="selected"></path></svg>