<?xml version="1.0" standalone="no"?><!DOCTYPE svg PUBLIC "-//W3C//DTD SVG 1.1//EN" "http://www.w3.org/Graphics/SVG/1.1/DTD/svg11.dtd"><svg t="1763428198915" class="icon" viewBox="0 0 1024 1024" version="1.1" xmlns="http://www.w3.org/2000/svg" p-id="8990" width="16" height="16" xmlns:xlink="http://www.w3.org/1999/xlink"><path d="M737.961575 746.838673m-277.161328 0a277.161327 277.161327 0 1 0 554.322655 0 277.161327 277.161327 0 1 0-554.322655 0Z" fill="#4C84FF" opacity=".16" p-id="8991"></path><path d="M759.806802 122.730756c29.354525 10.922614 49.06643 39.253144 48.486166 70.365527v346.059127c0 9.198889-2.269856 26.862803-7.475164 47.581637-8.106627 32.221711-21.828161 66.576745-42.376328 101.785108-57.343723 98.218192-156.807775 185.684436-307.642247 252.807311-17.23725 7.748229-35.327829 14.404197-44.81685 14.404197l-2.74772-0.017066a65.023686 65.023686 0 0 1-6.24637-0.665597 100.67578 100.67578 0 0 1-9.215955-1.877324 104.037897 104.037897 0 0 1-9.830353-2.918386c-159.555495-67.105809-264.600321-156.090979-325.118428-256.988625C31.114858 657.102573 16.642394 621.740611 8.057902 588.409572 2.647795 567.332341 0.548605 551.716416 0.002475 539.138343V192.635485c0-30.97585 19.831371-59.084514 49.049363-69.955929L375.620926 4.408128A70.314327 70.314327 0 0 1 400.947737 0.004949h6.724234c8.499159-0.068266 16.947118 1.365327 25.053745 4.24958l324.094434 117.418099 2.969586 1.058128z m-11.775943 32.051045L421.205772 36.356774a38.877679 38.877679 0 0 0-13.397268-2.218656h-6.860767c-4.932243 0-9.523154 0.716797-13.311936 2.184522L60.810714 154.730601C45.007057 160.601506 34.135643 176.029699 34.135643 192.635485l-0.017067 345.768995c0.426665 9.557287 2.218656 22.869223 6.9973 41.488867 7.799429 30.241987 21.026032 62.549031 40.959802 95.811803 56.746392 94.548876 156.108045 178.738336 307.932378 242.635627a83.114265 83.114265 0 0 0 12.083142 2.969586c1.109328 0.170666 2.116256 0.273065 2.04799 0.290132h1.843191c2.355189 0 19.404706-6.263436 30.890517-11.434611 144.451568-64.289823 238.420181-146.909157 292.094589-238.846846 18.892709-32.358244 31.402515-63.709559 38.741146-92.893418 4.539711-18.056446 6.451169-32.938507 6.451169-39.253143V192.772018a40.174739 40.174739 0 0 0-25.804676-37.887817l-0.341331-0.119466z" fill="#252B3A" p-id="8992"></path><path d="M256.223103 392.31452a17.28845 17.28845 0 1 0 0 34.576899h136.106009v136.106009a17.28845 17.28845 0 0 0 34.559833 0v-136.106009h136.106009a17.28845 17.28845 0 0 0 0-34.576899h-136.106009v-136.106009a17.28845 17.28845 0 0 0-34.559833 0v136.106009h-136.106009z" fill="#4366b0" p-id="8993" data-spm-anchor-id="a313x.search_index.0.i0.4e1a3a81L5XDfC" class="selected"></path></svg>