<?xml version="1.0" standalone="no"?><!DOCTYPE svg PUBLIC "-//W3C//DTD SVG 1.1//EN" "http://www.w3.org/Graphics/SVG/1.1/DTD/svg11.dtd"><svg t="1763429255448" class="icon" viewBox="0 0 1024 1024" version="1.1" xmlns="http://www.w3.org/2000/svg" p-id="18059" xmlns:xlink="http://www.w3.org/1999/xlink" width="16" height="16"><path d="M866.461538 118.153846a39.384615 39.384615 0 0 1 39.384616 39.384616v315.076923h-78.769231V354.461538H196.923077v472.615385h275.692308v78.769231H157.538462a39.384615 39.384615 0 0 1-39.384616-39.384616V157.538462a39.384615 39.384615 0 0 1 39.384616-39.384616h708.923076zM433.230769 590.769231v78.769231H275.692308v-78.769231h157.538461z m78.769231-157.538462v78.769231H275.692308v-78.769231h236.307692z m315.076923-236.307692H196.923077v118.153846h630.153846V196.923077z" fill="#000000" fill-opacity=".6" p-id="18060" data-spm-anchor-id="a313x.search_index.0.i33.4e1a3a81L5XDfC" class="selected"></path><path d="M581.198769 820.302769l-27.844923-250.643692 250.643692 27.884308-66.835692 66.835692 139.264 139.224615-89.127384 89.127385-139.264-139.264-66.835693 66.835692z" fill="#4366b0" p-id="18061" data-spm-anchor-id="a313x.search_index.0.i30.4e1a3a81L5XDfC" class="selected"></path></svg>