<?xml version="1.0" encoding="UTF-8"?>
<svg width="18px" height="18px" viewBox="0 0 18 18" version="1.1" xmlns="http://www.w3.org/2000/svg" xmlns:xlink="http://www.w3.org/1999/xlink">
    <!-- Generator: Sketch 57 (83077) - https://sketch.com -->
    <title>美国_slice</title>
    <desc>Created with Sketch.</desc>
    <defs>
        <polygon id="path-1" points="9.05941988e-14 2.30926389e-14 15.7447266 2.30926389e-14 15.7447266 10.4965909 9.05941988e-14 10.4965909"></polygon>
    </defs>
    <g id="空探5.0" stroke="none" stroke-width="1" fill="none" fill-rule="evenodd">
        <g id="画板" transform="translate(-1120.000000, -599.000000)">
            <g id="美国" transform="translate(1120.000000, 599.000000)">
                <g id="编组-118" transform="translate(1.000000, 4.000000)">
                    <g id="编组-22">
                        <mask id="mask-2" fill="white">
                            <use xlink:href="#path-1"></use>
                        </mask>
                        <use id="路径" fill="#FFFFFF" fill-rule="nonzero" xlink:href="#path-1"></use>
                        <path d="M0,0 L18,0 L18,0.796882611 L0,0.796882611 L0,0 Z M0,1.60350706 L18,1.60350706 L18,2.40038967 L0,2.40038967 L0,1.60350706 Z M0,3.19532392 L18,3.19532392 L18,3.99220653 L0,3.99220653 L0,3.19532392 Z M0,4.79883098 L18,4.79883098 L18,5.59571359 L0,5.59571359 L0,4.79883098 Z M0,6.40233804 L18,6.40233804 L18,7.19922065 L0,7.19922065 L0,6.40233804 Z M0,7.99610326 L18,7.99610326 L18,8.79298587 L0,8.79298587 L0,7.99610326 Z M0,9.59961033 L18,9.59961033 L18,10.3964929 L0,10.3964929 L0,9.59961033 Z M0,11.2031174 L18,11.2031174 L18,12 L0,12 L0,11.2031174 L0,11.2031174 Z" id="形状" fill="#D02F44" fill-rule="nonzero" mask="url(#mask-2)"></path>
                        <g id="编组-20" mask="url(#mask-2)" fill-rule="nonzero">
                            <g transform="translate(0.000000, 0.000000)">
                                <polygon id="路径" fill="#46467F" points="-4.52970994e-14 -2.30926389e-14 7.87299107 -2.30926389e-14 7.87299107 5.59480519 -4.52970994e-14 5.59480519"></polygon>
                                <path d="M1.13504464,1.12402597 L0.853794643,1.33051948 L0.954241071,0.991558442 L0.672991071,0.773376623 L1.02254464,0.773376623 L1.13504464,0.434415584 L1.24754464,0.773376623 L1.59709821,0.773376623 L1.31584821,0.991558442 L1.41629464,1.33051948 L1.13504464,1.12402597 L1.13504464,1.12402597 Z M2.98125,1.12402597 L2.7,1.33051948 L2.80044643,0.991558442 L2.51919643,0.773376623 L2.86875,0.773376623 L2.98125,0.434415584 L3.09375,0.773376623 L3.44330357,0.773376623 L3.16205357,0.991558442 L3.2625,1.33051948 L2.98125,1.12402597 Z M4.83549107,1.12402597 L4.55424107,1.33051948 L4.6546875,0.991558442 L4.3734375,0.773376623 L4.72299107,0.773376623 L4.83549107,0.434415584 L4.94799107,0.773376623 L5.29754464,0.773376623 L5.01629464,0.991558442 L5.11674107,1.33051948 L4.83549107,1.12402597 Z M6.6796875,1.15519481 L6.3984375,1.36168831 L6.49888393,1.01298701 L6.21763393,0.794805195 L6.5671875,0.783116883 L6.6796875,0.434415584 L6.7921875,0.783116883 L7.14174107,0.794805195 L6.86049107,1.01298701 L6.9609375,1.36168831 L6.6796875,1.15519481 Z M1.85625,2.06103896 L1.575,2.26753247 L1.67544643,1.92857143 L1.39419643,1.71038961 L1.74375,1.71038961 L1.85625,1.37142857 L1.96875,1.71038961 L2.31830357,1.71038961 L2.03705357,1.92857143 L2.1375,2.26753247 L1.85625,2.06103896 Z M3.93549107,2.06103896 L3.65424107,2.26753247 L3.7546875,1.92857143 L3.4734375,1.71038961 L3.82299107,1.71038961 L3.93549107,1.37142857 L4.04799107,1.71038961 L4.39754464,1.71038961 L4.11629464,1.92857143 L4.21674107,2.26753247 L3.93549107,2.06103896 Z M6.0046875,2.06103896 L5.7234375,2.26753247 L5.82388393,1.92857143 L5.54263393,1.71038961 L5.8921875,1.71038961 L6.0046875,1.37142857 L6.1171875,1.71038961 L6.46674107,1.71038961 L6.18549107,1.92857143 L6.2859375,2.26753247 L6.0046875,2.06103896 Z M1.13504464,3.00974026 L0.853794643,3.21623377 L0.954241071,2.87727273 L0.672991071,2.65909091 L1.02254464,2.65909091 L1.13504464,2.32012987 L1.24754464,2.65909091 L1.59709821,2.65909091 L1.31584821,2.87727273 L1.41629464,3.21623377 L1.13504464,3.00974026 Z M2.98125,3.00974026 L2.7,3.20649351 L2.80044643,2.86753247 L2.51919643,2.64935065 L2.86875,2.64935065 L2.98125,2.31038961 L3.09375,2.64935065 L3.44330357,2.64935065 L3.16205357,2.86753247 L3.2625,3.20649351 L2.98125,3.00974026 Z M4.83549107,3.00974026 L4.55424107,3.21623377 L4.6546875,2.87727273 L4.3734375,2.65909091 L4.72299107,2.65909091 L4.83549107,2.32012987 L4.94799107,2.65909091 L5.29754464,2.65909091 L5.01629464,2.87727273 L5.11674107,3.21623377 L4.83549107,3.00974026 L4.83549107,3.00974026 Z M6.6796875,3.03116883 L6.3984375,3.23766234 L6.49888393,2.88896104 L6.21763393,2.67077922 L6.5671875,2.65909091 L6.6796875,2.31038961 L6.7921875,2.65909091 L7.14174107,2.67077922 L6.86049107,2.88896104 L6.9609375,3.23766234 L6.6796875,3.03116883 Z M1.13504464,4.88571429 L0.853794643,5.09220779 L0.954241071,4.75324675 L0.672991071,4.53506494 L1.02254464,4.53506494 L1.13504464,4.1961039 L1.24754464,4.53506494 L1.59709821,4.53506494 L1.31584821,4.75324675 L1.41629464,5.09220779 L1.13504464,4.88571429 Z M2.98125,4.88571429 L2.7,5.09220779 L2.80044643,4.75324675 L2.51919643,4.53506494 L2.86875,4.53506494 L2.98125,4.1961039 L3.09375,4.53506494 L3.44330357,4.53506494 L3.16205357,4.75324675 L3.2625,5.09220779 L2.98125,4.88571429 Z M4.83549107,4.88571429 L4.55424107,5.09220779 L4.6546875,4.75324675 L4.3734375,4.53506494 L4.72299107,4.53506494 L4.83549107,4.1961039 L4.94799107,4.53506494 L5.29754464,4.53506494 L5.01629464,4.75324675 L5.11674107,5.09220779 L4.83549107,4.88571429 L4.83549107,4.88571429 Z M6.6796875,4.91883117 L6.3984375,5.12532468 L6.49888393,4.77662338 L6.21763393,4.55844156 L6.5671875,4.54675325 L6.6796875,4.19805195 L6.7921875,4.54675325 L7.14174107,4.55844156 L6.86049107,4.77662338 L6.9609375,5.12532468 L6.6796875,4.91883117 Z M1.85625,3.9487013 L1.575,4.15519481 L1.67544643,3.81623377 L1.39419643,3.59805195 L1.74375,3.59805195 L1.85625,3.25909091 L1.96875,3.59805195 L2.31830357,3.59805195 L2.03705357,3.81623377 L2.1375,4.15519481 L1.85625,3.9487013 Z M3.93549107,3.9487013 L3.65424107,4.15519481 L3.7546875,3.81623377 L3.4734375,3.59805195 L3.82299107,3.59805195 L3.93549107,3.25909091 L4.04799107,3.59805195 L4.39754464,3.59805195 L4.11629464,3.81623377 L4.21674107,4.15519481 L3.93549107,3.9487013 Z M6.0046875,3.9487013 L5.7234375,4.15519481 L5.82388393,3.81623377 L5.54263393,3.59805195 L5.8921875,3.59805195 L6.0046875,3.25909091 L6.1171875,3.59805195 L6.46674107,3.59805195 L6.18549107,3.81623377 L6.2859375,4.15519481 L6.0046875,3.9487013 Z" id="形状" fill="#FFFFFF"></path>
                            </g>
                        </g>
                    </g>
                </g>
                <rect id="矩形" x="0" y="0" width="18" height="18"></rect>
            </g>
        </g>
    </g>
</svg>