<?xml version="1.0" encoding="UTF-8"?>
<svg width="16px" height="11px" viewBox="0 0 16 11" version="1.1" xmlns="http://www.w3.org/2000/svg" xmlns:xlink="http://www.w3.org/1999/xlink">
    <!-- Generator: Sketch 57 (83077) - https://sketch.com -->
    <title>澳大利亚</title>
    <desc>Created with Sketch.</desc>
    <g id="清华主页" stroke="none" stroke-width="1" fill="none" fill-rule="evenodd">
        <g id="首页素材" transform="translate(-118.000000, -686.000000)" fill-rule="nonzero">
            <g id="澳大利亚" transform="translate(117.000000, 683.000000)">
                <rect id="矩形备份-114" fill="#000000" opacity="0" x="0" y="0" width="18" height="18"></rect>
                <g transform="translate(1.000000, 3.000000)">
                    <rect id="矩形" fill="#000000" opacity="0" x="0" y="0" width="10.5228003" height="10.5228003"></rect>
                    <polygon id="路径" fill="#00227D" points="0 0 15.9946564 0 15.9946564 10.5228003 0 10.5228003"></polygon>
                    <path d="M3.94703661,7.56655106 L4.42154913,6.83982017 L3.62214515,7.14037765 L3.34723699,6.31368015 L3.07232884,7.14037765 L2.27292486,6.83982017 L2.74743738,7.56655106 L1.9980167,8.01738728 L2.87239563,8.09269107 L2.74743738,8.94438022 L3.34690816,8.31794477 L3.94637893,8.94438022 L3.82142068,8.09269107 L4.69579961,8.01738728 L3.94637893,7.56655106 L3.94703661,7.56655106 Z M12.8654387,8.41824021 L13.0903635,8.06737058 L12.6904971,8.21764933 L12.5655389,7.8167964 L12.4405806,8.21764933 L12.0657058,8.06737058 L12.2906307,8.41824021 L11.9407476,8.61883109 L12.340614,8.66881439 L12.2906307,9.06966731 L12.5655389,8.76910983 L12.8654387,9.06966731 L12.7904637,8.66881439 L13.2149929,8.61883109 L12.8651098,8.41824021 L12.8654387,8.41824021 Z M10.5422017,4.76025177 L10.7921182,4.40938215 L10.3922518,4.55966089 L10.2672935,4.15880796 L10.1423353,4.55966089 L9.74246885,4.40938215 L9.99238536,4.76025177 L9.6175106,4.96084265 L10.0420398,4.9858343 L9.99205652,5.41167887 L10.2669647,5.11112139 L10.5418728,5.41167887 L10.4918895,4.9858343 L10.9167476,4.96084265 L10.5418728,4.76025177 L10.5422017,4.76025177 Z M12.3409428,2.48042132 L12.2909595,2.9062659 L12.5658677,2.60570841 L12.8657675,2.9062659 L12.7907925,2.48042132 L13.2153218,2.45542967 L12.8654387,2.25483879 L13.0903635,1.90396917 L12.6904971,2.05424791 L12.5655389,1.65339499 L12.4405806,2.05424791 L12.0657058,1.90396917 L12.2906307,2.25483879 L11.9407476,2.45542967 L12.340614,2.48042132 L12.3409428,2.48042132 Z M15.2639794,4.33440719 L14.9140963,4.13381631 L15.1390212,3.78294669 L14.7391548,3.93322543 L14.6141965,3.53237251 L14.4892383,3.93322543 L14.1143635,3.78294669 L14.3392884,4.13381631 L13.9894053,4.33440719 L14.3892717,4.38439049 L14.3392884,4.78524342 L14.6141965,4.48468593 L14.9140963,4.78524342 L14.8391214,4.38439049 L15.2636506,4.33440719 L15.2639794,4.33440719 Z M13.5901965,5.6372614 L13.4902299,5.38668722 L13.3902633,5.6372614 L13.1403468,5.66225305 L13.34028,5.83752344 L13.2653051,6.08809762 L13.4902299,5.93781888 L13.7151548,6.08809762 L13.6651715,5.83752344 L13.8651047,5.66225305 L13.5901965,5.6372614 L13.5901965,5.6372614 Z" id="形状" fill="#FFFFFF"></path>
                    <polygon id="路径" fill="#00237A" points="0 0 7.89210019 0 7.89210019 5.15617213 0 5.15617213"></polygon>
                    <polygon id="路径" fill="#FFFFFF" points="7.89210019 1.81025048 4.7079666 1.81025048 4.7079666 0 3.16012845 0 3.16012845 1.81025048 0 1.81025048 0 3.34723699 3.16012845 3.34723699 3.16012845 5.15617213 4.7079666 5.15617213 4.7079666 3.34723699 7.89210019 3.34723699"></polygon>
                    <polygon id="路径" fill="#FFFFFF" points="7.89210019 4.56788182 0.885230572 0 0 0 0 0.594538215 7.00029287 5.15617213 7.89210019 5.15617213"></polygon>
                    <polygon id="路径" fill="#FFFFFF" points="0 4.56788182 7.00686962 0 7.89210019 0 7.89210019 0.594538215 0.891807322 5.15617213 0 5.15617213"></polygon>
                    <polygon id="路径" fill="#CF142B" points="7.89210019 2.13284008 4.38307514 2.13284008 4.38307514 0 3.48501991 0 3.48501991 2.13284008 0 2.13284008 0 3.0246474 3.48501991 3.0246474 3.48501991 5.15617213 4.38307514 5.15617213 4.38307514 3.0246474 7.89210019 3.0246474"></polygon>
                    <path d="M7.89210019,5.15617213 L7.89210019,4.75137315 L5.72045729,3.34723699 L5.10914836,3.34723699 L7.89210019,5.15617213 Z M7.89210019,0 L7.28079127,0 L4.7079666,1.65832755 L4.7079666,1.81025048 L5.09007579,1.81025048 L7.89210019,0 Z M2.75894669,3.34723699 L0,5.1436763 L0,5.15617213 L0.585988439,5.15617213 L3.16012845,3.48633526 L3.16012845,3.34723699 L2.75894669,3.34723699 L2.75894669,3.34723699 Z M0,0 L0,0.404798972 L2.16013359,1.81025048 L2.77801927,1.81025048 L0,0 Z" id="形状" fill="#CF142B"></path>
                </g>
            </g>
        </g>
    </g>
</svg>