<?xml version="1.0" encoding="UTF-8"?>
<svg width="16px" height="12px" viewBox="0 0 16 12" version="1.1" xmlns="http://www.w3.org/2000/svg" xmlns:xlink="http://www.w3.org/1999/xlink">
    <!-- Generator: Sketch 57 (83077) - https://sketch.com -->
    <title>编组 10</title>
    <desc>Created with Sketch.</desc>
    <g id="空探5.0" stroke="none" stroke-width="1" fill="none" fill-rule="evenodd">
        <g id="全局搜索定稿备份-3" transform="translate(-1277.000000, -707.000000)" fill-rule="nonzero">
            <g id="编组-10" transform="translate(1276.000000, 703.000000)">
                <rect id="矩形" fill="#000000" opacity="0" x="0" y="0" width="18" height="18"></rect>
                <polygon id="路径" fill="#009B39" opacity="0.75" points="1 4 16.75 4 16.75 15 1 15"></polygon>
                <path d="M16.46875,4 L16.75,4 L16.75,15.025 L16.46875,15.025 L16.46875,4 Z M1,4 L1.28125,4 L1.28125,15.025 L1,15.025 L1,4 Z" id="形状" fill="#009B39"></path>
                <path d="M1,4 L16.75,4 L16.75,4.28125 L1,4.28125 L1,4 Z M1,14.74375 L16.75,14.74375 L16.75,15.025 L1,15.025 L1,14.74375 Z" id="形状" fill="#009B39"></path>
                <polygon id="路径" fill="#FEDF00" points="8.875 13.6690234 2.32486328 9.5125 8.875 5.35597656 15.4251367 9.5125"></polygon>
                <path d="M6.13386719,9.5125 C6.13386719,11.0263858 7.36111415,12.2536328 8.875,12.2536328 C10.3888858,12.2536328 11.6161328,11.0263858 11.6161328,9.5125 C11.6161328,7.99861415 10.3888858,6.77136719 8.875,6.77136719 C7.36111415,6.77136719 6.13386719,7.99861415 6.13386719,9.5125 Z" id="路径" fill="#012775"></path>
                <path d="M6.76439453,8.97144531 L6.67,8.97144531 L6.64082031,8.88162109 L6.61164063,8.97144531 L6.51707031,8.97144531 L6.59353516,9.02681641 L6.56435547,9.11664063 L6.64082031,9.06109375 L6.71710938,9.11664063 L6.68792969,9.02681641 L6.76439453,8.97144531 Z M7.83507813,9.51724609 L7.81134766,9.59037109 L7.73453125,9.59037109 L7.79658203,9.63537109 L7.77285156,9.70849609 L7.83507812,9.66332031 L7.89712891,9.70849609 L7.87339844,9.63537109 L7.93544922,9.59037109 L7.85880859,9.59037109 L7.83507813,9.51724609 Z M9.63525391,9.40386719 L9.68605469,9.44078125 L9.66654297,9.38101563 L9.71734375,9.34427734 L9.65458984,9.34427734 L9.63525391,9.28451172 L9.61591797,9.34427734 L9.55316406,9.34427734 L9.60396484,9.38101563 L9.58445312,9.44078125 L9.63525391,9.40386719 Z M8.88589844,9.84701172 L8.86181641,9.92083984 L8.78429688,9.92083984 L8.84705078,9.96654297 L8.82296875,10.0403711 L8.88589844,9.99466797 L8.94865234,10.0403711 L8.92474609,9.96654297 L8.9875,9.92083984 L8.90980469,9.92083984 L8.88589844,9.84701172 Z M8.62310547,10.1679883 L8.60447266,10.1105078 L8.58583984,10.1679883 L8.52537109,10.1679883 L8.57423828,10.2034961 L8.55560547,10.2609766 L8.60447266,10.2254688 L8.65333984,10.2609766 L8.63470703,10.2034961 L8.68357422,10.1679883 L8.62310547,10.1679883 Z M8.77392578,10.3979102 L8.81207031,10.3701367 L8.76478516,10.3701367 L8.75019531,10.3253125 L8.73560547,10.3701367 L8.68849609,10.3701367 L8.72664063,10.3979102 L8.71205078,10.4427344 L8.75019531,10.4151367 L8.78851563,10.4427344 L8.77392578,10.3979102 Z M9.23025391,10.172207 L9.20634766,10.0983789 L9.18226562,10.172207 L9.10474609,10.172207 L9.1675,10.2177344 L9.14341797,10.2917383 L9.20634766,10.2460352 L9.26910156,10.2917383 L9.24519531,10.2177344 L9.30794922,10.172207 L9.23025391,10.172207 Z M8.90980469,10.714668 L8.88589844,10.6406641 L8.86181641,10.714668 L8.78429688,10.714668 L8.84705078,10.7601953 L8.82296875,10.8340234 L8.88589844,10.7884961 L8.94865234,10.8340234 L8.92474609,10.7601953 L8.9875,10.714668 L8.90980469,10.714668 Z M9.50974609,11.0224609 L9.49041016,10.9633984 L9.47125,11.0224609 L9.40919922,11.0224609 L9.45947266,11.0588477 L9.4403125,11.1179102 L9.49041016,11.0815234 L9.54068359,11.1179102 L9.52152344,11.0588477 L9.57179688,11.0224609 L9.50974609,11.0224609 Z M8.9130891,11.6575601 L8.89978516,11.614668 L8.88648121,11.6575601 L8.84353516,11.6575601 L8.87831213,11.6842758 L8.86500819,11.727168 L8.89978516,11.7006974 L8.93456213,11.727168 L8.92125819,11.6842758 L8.95603516,11.6575601 L8.9130891,11.6575601 Z M9.73087891,11.3344727 L9.70820313,11.2646875 L9.68570313,11.3344727 L9.61240234,11.3344727 L9.67164063,11.3775391 L9.64896484,11.4471484 L9.70820313,11.404082 L9.76761719,11.4471484 L9.74494141,11.3775391 L9.80417969,11.3344727 L9.73087891,11.3344727 Z M9.96625,11.0929492 L9.949375,11.0407422 L9.93232422,11.0929492 L9.87748047,11.0929492 L9.92195312,11.1251172 L9.90490234,11.1773242 L9.949375,11.1451563 L9.99384766,11.1773242 L9.97679687,11.1251172 L10.0212695,11.0929492 L9.96625,11.0929492 Z M10.2109375,11.0848633 L10.2554102,11.0525195 L10.2998828,11.0848633 L10.282832,11.0326563 L10.3273047,11.0003125 L10.2722852,11.0003125 L10.2554102,10.9481055 L10.2383594,11.0003125 L10.1835156,11.0003125 L10.2279883,11.0326563 L10.2109375,11.0848633 Z M10.2650781,11.1919141 L10.2413477,11.2650391 L10.1645312,11.2650391 L10.2267578,11.3102148 L10.2030273,11.3831641 L10.2650781,11.3379883 L10.3273047,11.3831641 L10.3035742,11.3102148 L10.365625,11.2650391 L10.2888086,11.2650391 L10.2650781,11.1919141 Z M10.5603906,11.0544531 L10.5412305,10.9955664 L10.5220703,11.0544531 L10.4600195,11.0544531 L10.5101172,11.0908398 L10.4911328,11.1499023 L10.5412305,11.1133398 L10.5913281,11.1499023 L10.572168,11.0908398 L10.6222656,11.0544531 L10.5603906,11.0544531 Z M10.7864453,10.9064453 L10.7625391,10.8333203 L10.7388086,10.9064453 L10.6618164,10.9064453 L10.724043,10.9517969 L10.7003125,11.0250977 L10.7625391,10.9797461 L10.8249414,11.0250977 L10.8010352,10.9517969 L10.8634375,10.9064453 L10.7864453,10.9064453 Z M10.9508008,10.6893555 L10.9270703,10.6160547 L10.9033398,10.6893555 L10.8263477,10.6893555 L10.8885742,10.7345313 L10.8648437,10.807832 L10.9270703,10.7624805 L10.9892969,10.807832 L10.9655664,10.7345313 L11.027793,10.6893555 L10.9508008,10.6893555 Z M11.269668,10.4771875 L11.2158789,10.4771875 L11.1991797,10.4260352 L11.1826562,10.4771875 L11.1288672,10.4771875 L11.1722852,10.5088281 L11.1557617,10.5599805 L11.1991797,10.5283398 L11.2427734,10.5599805 L11.2260742,10.5088281 L11.269668,10.4771875 Z M10.2833594,11.5501563 L10.2650781,11.4942578 L10.2469727,11.5501563 L10.1879102,11.5501563 L10.2357227,11.5847852 L10.2174414,11.6408594 L10.2650781,11.6062305 L10.3127148,11.6408594 L10.2946094,11.5847852 L10.3422461,11.5501563 L10.2833594,11.5501563 Z M10.7532227,10.5599805 L10.8159766,10.5142773 L10.8789063,10.5599805 L10.8548242,10.4861523 L10.9177539,10.4404492 L10.8400586,10.4404492 L10.8159766,10.3666211 L10.7920703,10.4404492 L10.714375,10.4404492 L10.7773047,10.4861523 L10.7532227,10.5599805 Z M6.91011719,10.1238672 L6.87970703,10.0298242 L6.84912109,10.1238672 L6.75050781,10.1238672 L6.8303125,10.181875 L6.79972656,10.2757422 L6.87970703,10.2177344 L6.95951172,10.2757422 L6.92910156,10.181875 L7.00890625,10.1238672 L6.91011719,10.1238672 Z M7.17027344,9.97498047 L7.15339844,9.923125 L7.13652344,9.97498047 L7.08185547,9.97498047 L7.12615234,10.0071484 L7.10927734,10.0590039 L7.15339844,10.0270117 L7.19751953,10.0590039 L7.18064453,10.0071484 L7.22494141,9.97498047 L7.17027344,9.97498047 Z M6.56365234,10.3875391 L6.54097656,10.3179297 L6.51830078,10.3875391 L6.44517578,10.3875391 L6.50441406,10.4306055 L6.48173828,10.5002148 L6.54097656,10.4571484 L6.60021484,10.5002148 L6.57753906,10.4306055 L6.63677734,10.3875391 L6.56365234,10.3875391 Z M7.47542969,10.4147852 L7.45275391,10.3451758 L7.43025391,10.4147852 L7.35695313,10.4147852 L7.41619141,10.4578516 L7.39351563,10.5274609 L7.45275391,10.4843945 L7.51199219,10.5274609 L7.48949219,10.4578516 L7.54873047,10.4147852 L7.47542969,10.4147852 Z M7.38648438,10.6939258 L7.36925781,10.6406641 L7.35185547,10.6939258 L7.29595703,10.6939258 L7.34113281,10.7267969 L7.32390625,10.7800586 L7.36925781,10.7471875 L7.41443359,10.7800586 L7.39720703,10.7267969 L7.44238281,10.6939258 L7.38648438,10.6939258 Z M7.80888672,10.9368555 L7.78076172,10.8507227 L7.7528125,10.9368555 L7.66228516,10.9368555 L7.73558594,10.9901172 L7.70763672,11.07625 L7.78076172,11.0229883 L7.8540625,11.07625 L7.82611328,10.9901172 L7.89941406,10.9368555 L7.80888672,10.9368555 Z M9.77271484,8.61496094 L9.74353516,8.52513672 L9.71435547,8.61496094 L9.61996094,8.61496094 L9.69642578,8.67050781 L9.66724609,8.76015625 L9.74353516,8.70478516 L9.82,8.76015625 L9.79082031,8.67050781 L9.86710938,8.61496094 L9.77271484,8.61496094 Z" id="形状" fill="#FFFFFF"></path>
                <path d="M6.39015625,8.35621094 C6.32458984,8.49736328 6.27080078,8.64519531 6.22984375,8.798125 C8.09224609,8.44164063 10.016875,8.98322266 11.4208398,10.2648438 C11.4452734,10.2869922 11.4691797,10.309668 11.4930859,10.3323438 C11.5373828,10.1918945 11.5704297,10.0465234 11.5915234,9.89728516 C10.1443807,8.68840029 8.26226682,8.13076284 6.39015625,8.35621094 Z" id="路径" fill="#FFFFFF"></path>
                <path d="M6.49123047,8.42476563 C6.56488281,8.41685547 6.60267578,8.47873047 6.60970703,8.54640625 C6.61691406,8.61443359 6.59371094,8.6828125 6.51900391,8.69072266 C6.44464844,8.69863281 6.40755859,8.63570313 6.40052734,8.56873047 C6.39349609,8.50105469 6.41757813,8.4325 6.49123047,8.42476563 Z M6.51425781,8.64484375 C6.55328125,8.640625 6.56751953,8.59931641 6.56242188,8.55150391 C6.5575,8.50421875 6.53412109,8.46677734 6.49597656,8.47082031 C6.45748047,8.47486328 6.44271484,8.51634766 6.4478125,8.56380859 C6.45273438,8.61074219 6.47541016,8.64888672 6.51425781,8.64484375 L6.51425781,8.64484375 Z M6.84349609,8.39980469 C6.91486328,8.39839844 6.94580078,8.43021484 6.94773438,8.47222656 C6.94914063,8.50228516 6.92962891,8.52232422 6.90660156,8.53287109 L6.90660156,8.53322266 C6.92998047,8.54130859 6.94457031,8.5590625 6.94861328,8.58578125 C6.95318359,8.6125 6.96021484,8.63429688 6.97005859,8.65398438 L6.90923828,8.65521484 C6.90220703,8.64273438 6.89728516,8.62533203 6.89253906,8.59298828 C6.88955078,8.57347656 6.87583984,8.55695313 6.84841797,8.55748047 L6.80007813,8.55835938 L6.80482422,8.65732422 L6.74681641,8.65837891 L6.73451172,8.40191406 L6.84349609,8.39980469 L6.84349609,8.39980469 Z M6.79875695,8.55850654 L6.85351599,8.55700719 C6.89107104,8.55610758 6.90848483,8.53241786 6.9074358,8.49913232 C6.90638678,8.46584677 6.88834357,8.44485588 6.84890028,8.44605536 L6.79498047,8.44755471 L6.79875695,8.55850654 Z M7.1734375,8.38222656 C7.26748047,8.37923828 7.30298828,8.44181641 7.30544922,8.50667969 C7.30808594,8.57541016 7.27486328,8.63605469 7.18152344,8.63851563 L7.08519531,8.64115234 L7.07552734,8.38486328 L7.1734375,8.38222656 L7.1734375,8.38222656 Z M7.13898438,8.59351563 L7.17554688,8.59246094 C7.22599609,8.59105469 7.25113281,8.55994141 7.24919922,8.50826172 C7.24761719,8.46431641 7.22564453,8.426875 7.16939453,8.42828125 L7.13283203,8.42933594 L7.13898438,8.59351563 L7.13898438,8.59351563 Z M7.63222656,8.37941406 L7.63152344,8.42546875 L7.47630859,8.4240625 L7.47560547,8.48136719 L7.615,8.48259766 L7.61429688,8.52882813 L7.47490234,8.52759766 L7.47402344,8.58806641 L7.63046875,8.58947266 L7.62976563,8.63570313 L7.41619141,8.63376953 L7.41970703,8.37748047 L7.63222656,8.37941406 L7.63222656,8.37941406 Z M7.81310547,8.40648438 L7.86214844,8.59457031 L7.86302734,8.59457031 L7.93404297,8.41509766 L7.99679688,8.41966797 L7.98080078,8.67542969 L7.93615234,8.67226563 L7.94669922,8.50193359 L7.94582031,8.50193359 L7.87955078,8.66822266 L7.83595703,8.66505859 L7.79025391,8.49068359 L7.789375,8.49068359 L7.77882813,8.66101563 L7.73453125,8.65785156 L7.75052734,8.40208984 L7.81310547,8.40648438 L7.81310547,8.40648438 Z M8.50111328,8.49314453 L8.49460938,8.53867188 L8.36787109,8.52039063 L8.35996094,8.57699219 L8.47386719,8.59333984 L8.46736328,8.63921875 L8.35345703,8.62287109 L8.34501953,8.6828125 L8.4728125,8.70126953 L8.46630859,8.74714844 L8.29175781,8.72201172 L8.32761719,8.46818359 L8.50111328,8.49314453 L8.50111328,8.49314453 Z M8.96095703,8.58332031 C9.03794922,8.60037109 9.05324219,8.64255859 9.03865234,8.68720703 C9.02371094,8.73291016 8.98503906,8.76261719 8.90804688,8.74556641 L8.86128906,8.73519531 L8.83351563,8.82044922 L8.77779297,8.80814453 L8.85830078,8.56064453 L8.96095703,8.58332031 L8.96095703,8.58332031 Z M8.87587891,8.71415431 L8.91822193,8.72625297 C8.95620345,8.73695564 8.97819275,8.72508964 8.98618885,8.69344698 C8.99418496,8.66226965 8.9803735,8.64016632 8.94330064,8.62969632 L8.90041242,8.61759766 L8.87587891,8.71415431 L8.87587891,8.71415431 Z M9.30496094,8.67912109 C9.36929688,8.69757813 9.38388672,8.73589844 9.36859375,8.77580078 C9.35751953,8.80427734 9.33185547,8.81746094 9.30707031,8.82115234 L9.30689453,8.82150391 C9.32447266,8.83556641 9.33027344,8.85613281 9.32306641,8.88232422 C9.31621094,8.90851563 9.31357422,8.93083984 9.31445313,8.95193359 L9.25960938,8.93611328 C9.25837891,8.92257813 9.26119141,8.90482422 9.27015625,8.87318359 C9.27542969,8.85419922 9.26998047,8.83486328 9.24537109,8.82765625 L9.20177734,8.81517578 L9.16556641,8.90904297 L9.11318359,8.89392578 L9.206875,8.65082031 L9.30496094,8.67912109 L9.30496094,8.67912109 Z M9.21847656,8.80012273 L9.26599993,8.81762336 C9.29842053,8.82946202 9.31996713,8.81659391 9.32822331,8.78931352 C9.33647949,8.76229049 9.32661235,8.7391279 9.29258079,8.72677452 L9.24586291,8.70953125 L9.21847656,8.80012273 L9.21847656,8.80012273 Z M9.63490234,8.7925 C9.70363281,8.82027344 9.70837891,8.89287109 9.68341797,8.95615234 C9.65828125,9.01978516 9.60607422,9.06917969 9.53646484,9.04105469 C9.46703125,9.01292969 9.46333984,8.93980469 9.488125,8.87722656 C9.51308594,8.81394531 9.56617188,8.76472656 9.63490234,8.7925 Z M9.55333984,8.99798828 C9.58990234,9.01275391 9.62154297,8.98287109 9.63912109,8.93822266 C9.65669922,8.89392578 9.65335938,8.84980469 9.61767578,8.83556641 C9.58181641,8.82097656 9.54947266,8.85085938 9.53189453,8.89498047 C9.51466797,8.93892578 9.51712891,8.98339844 9.55333984,8.99798828 L9.55333984,8.99798828 Z M9.96449219,8.93769531 C10.0145898,8.96160156 10.0226758,9.00009766 10.0200391,9.04210938 L9.97275391,9.02875 C9.97292969,9.00291016 9.96326172,8.98849609 9.94498047,8.97970703 C9.91386719,8.96494141 9.87835938,8.98603516 9.85585938,9.03384766 C9.83335938,9.08166016 9.83933594,9.12279297 9.87009766,9.13755859 C9.89558594,9.1496875 9.92335938,9.1384375 9.93794922,9.11576172 L9.94287109,9.10521484 L9.89628906,9.08306641 L9.91580078,9.04123047 L10.0052734,9.08376953 L9.94287109,9.2171875 L9.90490234,9.19908203 L9.91826172,9.17042969 C9.89734375,9.18501953 9.87080078,9.1890625 9.84443359,9.17658203 C9.79679688,9.15390625 9.77728516,9.08904297 9.81279297,9.01345703 C9.84496094,8.94455078 9.90367188,8.90886719 9.96449219,8.93769531 L9.96449219,8.93769531 Z M10.2742188,9.06865234 C10.3345117,9.09800781 10.341543,9.14037109 10.3183398,9.17957031 C10.3016406,9.20769531 10.2735156,9.21736328 10.2480273,9.21736328 L10.2478516,9.21771484 C10.2626172,9.23511719 10.2641992,9.25744141 10.2517188,9.28363281 C10.2395898,9.31 10.2325586,9.33285156 10.2292188,9.355 L10.1777148,9.33003906 C10.1791211,9.315625 10.1854492,9.29769531 10.2007422,9.26605469 C10.2098828,9.24707031 10.2083008,9.22597656 10.1850977,9.21472656 L10.1441406,9.19486328 L10.0892969,9.28714844 L10.0402539,9.26324219 L10.1821094,9.02400391 L10.2742188,9.06865234 L10.2742188,9.06865234 Z M10.1696289,9.16965483 L10.212542,9.19407847 C10.2418627,9.21096958 10.2645814,9.20252402 10.2764261,9.17901342 C10.2882709,9.15550282 10.2824456,9.13244874 10.2515715,9.11464459 L10.2094351,9.09044922 L10.1696289,9.16965483 L10.1696289,9.16965483 Z M10.6176953,9.27589844 L10.5943164,9.31544922 L10.4842773,9.24900391 L10.4552734,9.29822266 L10.5540625,9.3578125 L10.5305078,9.39753906 L10.4317188,9.33794922 L10.400957,9.38998047 L10.511875,9.45677734 L10.4883203,9.49650391 L10.3369727,9.40509766 L10.4672266,9.18501953 L10.6176953,9.27589844 L10.6176953,9.27589844 Z M10.7203516,9.54853516 C10.7152539,9.57683594 10.7229883,9.5940625 10.7403906,9.60566406 C10.7599023,9.61849609 10.7771289,9.61251953 10.7841602,9.60179688 C10.7945313,9.58580078 10.7790625,9.56207031 10.7681641,9.54660156 C10.7324805,9.49703125 10.7207031,9.46345703 10.7403906,9.43287109 C10.7667578,9.39208984 10.8179102,9.39244141 10.8551758,9.41705078 C10.8919141,9.44130859 10.9080859,9.47804688 10.895957,9.52216797 L10.8488477,9.50001953 C10.8514844,9.47910156 10.8439258,9.4646875 10.8286328,9.45449219 C10.8124609,9.44376953 10.7950586,9.44570313 10.7867969,9.45853516 C10.7780078,9.47207031 10.7852148,9.48753906 10.8029688,9.51232422 C10.836543,9.55820313 10.850957,9.59669922 10.8312695,9.62710938 C10.8085938,9.66191406 10.7628906,9.675625 10.7141992,9.64345703 C10.675,9.61761719 10.6591797,9.57666016 10.6720117,9.52621094 L10.7203516,9.54853516 L10.7203516,9.54853516 Z M11.0033594,9.74664063 C10.9973828,9.77476563 11.0042383,9.79234375 11.0214648,9.80447266 C11.0404492,9.81800781 11.0578516,9.81255859 11.0652344,9.8021875 C11.0761328,9.78654297 11.061543,9.76228516 11.0513477,9.74646484 C11.0175977,9.69566406 11.006875,9.6615625 11.0276172,9.63185547 C11.0553906,9.59212891 11.106543,9.59423828 11.1429297,9.62025391 C11.1787891,9.64591797 11.1935547,9.68318359 11.1798438,9.72677734 L11.1334375,9.70304688 C11.1367773,9.68230469 11.1297461,9.66753906 11.1148047,9.65681641 C11.0989844,9.64556641 11.081582,9.64697266 11.0729688,9.65927734 C11.0636523,9.67246094 11.070332,9.68828125 11.087207,9.71359375 C11.1191992,9.76070313 11.132207,9.79955078 11.1112891,9.82925781 C11.0873828,9.86335938 11.0413281,9.8753125 10.9936914,9.84138672 C10.9553711,9.81414063 10.9411328,9.77265625 10.9555469,9.72255859 L11.0033594,9.74664063 L11.0033594,9.74664063 Z M11.4183789,9.82416016 C11.4774414,9.86933594 11.4630273,9.94052734 11.4222461,9.99484375 C11.3812891,10.0493359 11.3180078,10.0832617 11.2582422,10.0373828 C11.1986523,9.99185547 11.2142969,9.9203125 11.2545508,9.86652344 C11.295332,9.81220703 11.3593164,9.77898438 11.4183789,9.82416016 Z M11.2860156,10.0004688 C11.3173047,10.024375 11.355625,10.0039844 11.3844531,9.96583984 C11.4129297,9.92787109 11.4213672,9.88445313 11.3907813,9.86107422 C11.3600195,9.83751953 11.3211719,9.85755859 11.2925195,9.89552734 C11.2642188,9.93314453 11.2549023,9.97673828 11.2860156,10.0004688 Z" id="形状" fill="#009B39"></path>
            </g>
        </g>
    </g>
</svg>