<?xml version="1.0" encoding="UTF-8"?>
<svg width="18px" height="18px" viewBox="0 0 18 18" version="1.1" xmlns="http://www.w3.org/2000/svg" xmlns:xlink="http://www.w3.org/1999/xlink">
    <!-- Generator: Sketch 57 (83077) - https://sketch.com -->
    <title>英国_slice</title>
    <desc>Created with Sketch.</desc>
    <g id="空探5.0" stroke="none" stroke-width="1" fill="none" fill-rule="evenodd">
        <g id="画板" transform="translate(-1159.000000, -814.000000)">
            <g id="英国" transform="translate(1159.000000, 814.000000)">
                <g id="印度备份">
                    <rect id="矩形备份-72" x="0" y="0" width="18" height="18"></rect>
                </g>
                <g id="编组-130" transform="translate(1.000000, 4.000000)" fill-rule="nonzero">
                    <polygon id="路径" fill="#083F80" points="0.0378181719 0.024 15.3105455 0.024 15.3105455 10.2058182 0.0378181719 10.2058182"></polygon>
                    <polygon id="路径" fill="#FFFFFF" points="0.0378181719 3.58763637 15.3105455 3.58763637 15.3105455 6.60581819 0.0378181719 6.60581819"></polygon>
                    <polygon id="路径" fill="#FFFFFF" points="9.13272727 -6.39488462e-13 9.13272727 10.1818182 6.11454545 10.1818182 6.11454545 -6.39488462e-13"></polygon>
                    <polygon id="路径" fill="#FFFFFF" points="15.3105455 9.07854545 15.3105455 10.2058182 13.4923636 10.2058182 0.0378181719 1.26036364 0.0378181719 0.024 1.81963636 0.024"></polygon>
                    <polygon id="路径" fill="#FFFFFF" points="15.3105455 1.15127273 15.3105455 0.024 13.4923636 0.024 0.0378181719 8.93309092 0.0378181719 10.2058182 1.81963636 10.2058182"></polygon>
                    <path d="M0.0378181719,0.824 L4.14690908,3.58763637 L5.38327272,3.58763637 L0.0378181719,0.024 L0.0378181719,0.824 Z M15.3105455,9.36945455 L11.2014545,6.60581819 L9.96509091,6.60581819 L15.3105455,10.2058182 L15.3105455,9.36945455 Z M9.12872727,3.29672728 L9.12872727,3.58763637 L9.92872727,3.58763637 L15.3105455,0.024 L13.9650909,0.024 L9.12872727,3.29672728 Z M6.21963636,6.93309092 L6.21963636,6.60581819 L5.41963636,6.60581819 L0.0378181719,10.2058182 L1.38327272,10.2058182 L6.21963636,6.93309092 Z" id="形状" fill="#B7333C"></path>
                    <polygon id="路径" fill="#B7333C" points="6.76509091 0.024 8.54690908 0.024 8.54690908 10.2058182 6.76509091 10.2058182"></polygon>
                    <polygon id="路径" fill="#B7333C" points="1.04805054e-12 6.00254545 1.04805054e-12 4.22072728 15.3090909 4.22072728 15.3090909 6.00254545"></polygon>
                </g>
            </g>
        </g>
    </g>
</svg>