<?xml version="1.0" encoding="UTF-8"?>
<svg width="16px" height="11px" viewBox="0 0 16 11" version="1.1" xmlns="http://www.w3.org/2000/svg" xmlns:xlink="http://www.w3.org/1999/xlink">
    <!-- Generator: Sketch 57 (83077) - https://sketch.com -->
    <title>加拿大</title>
    <desc>Created with Sketch.</desc>
    <g id="清华主页" stroke="none" stroke-width="1" fill="none" fill-rule="evenodd">
        <g id="首页素材" transform="translate(-118.000000, -657.000000)" fill-rule="nonzero">
            <g id="加拿大" transform="translate(117.000000, 653.000000)">
                <rect id="矩形备份-114" fill="#000000" opacity="0" x="0" y="0" width="18" height="18"></rect>
                <g transform="translate(1.000000, 4.000000)">
                    <polygon id="路径" fill="#FFFFFF" points="-4.97379915e-14 4.35207426e-14 15.2727273 4.35207426e-14 15.2727273 10.1818182 -4.97379915e-14 10.1818182"></polygon>
                    <polygon id="路径" fill="#C13546" points="7.63636364 1.67272728 8.25454545 2.8 8.32727273 2.8 8.8 2.54545455 8.58181819 4.4 8.72727273 4.4 9.41818183 3.52727273 9.6 4 10.5090909 3.81818183 10.2545455 4.76363637 10.2545455 4.90909092 10.6545455 5.12727273 9.12727273 6.36363637 9.30909091 6.98181819 7.92727273 6.8 7.81818183 6.8 7.70909091 6.87272728 7.70909091 8.50909092 7.49090909 8.50909092 7.49090909 6.87272728 7.41818183 6.8 7.27272728 6.8 5.96363637 6.98181819 6.10909091 6.36363637 4.58181819 5.12727273 4.98181819 4.90909092 4.98181819 4.72727273 4.69090909 3.81818183 5.63636364 4 5.81818183 3.52727273 6.58181819 4.4 6.69090909 4.4 6.4 2.54545455 6.90909091 2.8 7.01818183 2.8"></polygon>
                    <path d="M-4.97379915e-14,2.13162821e-14 L3.78181819,2.13162821e-14 L3.78181819,10.1454545 L-4.97379915e-14,10.1454545 L-4.97379915e-14,2.13162821e-14 Z M11.4909091,2.13162821e-14 L15.2727273,2.13162821e-14 L15.2727273,10.1454545 L11.4909091,10.1454545 L11.4909091,2.13162821e-14 Z" id="形状" fill="#C13546"></path>
                    <path d="M15.2727273,10.2181818 L-4.97379915e-14,10.2181818 L-4.97379915e-14,1.77635684e-15 L15.2727273,1.77635684e-15 L15.2727273,10.2181818 L15.2727273,10.2181818 Z M-4.97379915e-14,10.1818182 L15.2727273,10.1818182 L15.2727273,0.036363625 L-4.97379915e-14,0.036363625 L-4.97379915e-14,10.1818182 Z" id="形状" fill="#EFEFEF"></path>
                </g>
            </g>
        </g>
    </g>
</svg>