<?xml version="1.0" encoding="UTF-8"?>
<svg width="18px" height="18px" viewBox="0 0 18 18" version="1.1" xmlns="http://www.w3.org/2000/svg" xmlns:xlink="http://www.w3.org/1999/xlink">
    <!-- Generator: Sketch 57 (83077) - https://sketch.com -->
    <title>中国_slice</title>
    <desc>Created with Sketch.</desc>
    <g id="空探5.0" stroke="none" stroke-width="1" fill="none" fill-rule="evenodd">
        <g id="画板" transform="translate(-1125.000000, -618.000000)">
            <g id="中国" transform="translate(1125.000000, 618.000000)">
                <g id="编组-21" transform="translate(1.000000, 4.000000)" fill-rule="nonzero">
                    <g id="编组-19">
                        <polygon id="路径" fill="#DE2910" points="0 0 16 0 16 11 0 11"></polygon>
                        <path d="M3.5315204,1.58034611 L3.89307787,2.69097651 L5.06304079,2.69097651 L4.11742892,3.37886279 L4.47713226,4.49134734 L3.5315204,3.8053152 L2.58590853,4.49134734 L2.94561187,3.37886279 L2,2.69283066 L3.17181706,2.69283066 L3.5315204,1.58034611 L3.5315204,1.58034611 Z M6.57972806,1 L6.55562423,1.38380717 L6.91347342,1.52657602 L6.53893696,1.62299135 L6.51483313,2.00679852 L6.31087763,1.68046972 L5.9381953,1.77688504 L6.18479604,1.48207664 L5.98084054,1.15574784 L6.3368356,1.29666255 L6.57972806,1 L6.57972806,1 Z M7.89060569,2.24412855 L7.71631644,2.58714462 L7.98887515,2.85970334 L7.60877627,2.79851669 L7.43263288,3.1433869 L7.37330037,2.76143387 L6.99320148,2.70210136 L7.33807169,2.52781211 L7.27688504,2.14771323 L7.54758962,2.4184178 L7.89060569,2.24412855 L7.89060569,2.24412855 Z M7.49752781,3.80346106 L7.61433869,4.17058096 L8,4.17058096 L7.68850433,4.39678616 L7.8053152,4.76205192 L7.49381953,4.53399258 L7.184178,4.76019778 L7.30284302,4.39678616 L6.99134734,4.17058096 L7.37700865,4.17058096 L7.49752781,3.80346106 L7.49752781,3.80346106 Z M6.57787392,4.9789864 L6.55191595,5.36279357 L6.90976514,5.50556242 L6.53893696,5.60197775 L6.51297899,5.98763906 L6.30716934,5.66131026 L5.93448702,5.75587145 L6.17923362,5.46106304 L5.97527812,5.13473424 L6.33498146,5.27750309 L6.57787392,4.9789864 L6.57787392,4.9789864 Z" id="形状" fill="#FFDE00"></path>
                    </g>
                </g>
                <rect id="矩形备份-70" x="0" y="0" width="18" height="18"></rect>
            </g>
        </g>
    </g>
</svg>