<?xml version="1.0" encoding="UTF-8"?>
<svg width="18px" height="18px" viewBox="0 0 18 18" version="1.1" xmlns="http://www.w3.org/2000/svg" xmlns:xlink="http://www.w3.org/1999/xlink">
    <!-- Generator: Sketch 57 (83077) - https://sketch.com -->
    <title>印度_slice</title>
    <desc>Created with Sketch.</desc>
    <g id="空探5.0" stroke="none" stroke-width="1" fill="none" fill-rule="evenodd">
        <g id="画板" transform="translate(-1153.000000, -776.000000)">
            <g id="印度" transform="translate(1153.000000, 776.000000)">
                <g id="编组-129" transform="translate(1.000000, 4.000000)" fill-rule="nonzero">
                    <polygon id="路径" fill="#4BA546" points="0 7.06333333 16 7.06333333 16 10.5966667 0 10.5966667"></polygon>
                    <polygon id="路径" fill="#FFFFFF" points="0 3.53 16 3.53 16 7.06333333 0 7.06333333"></polygon>
                    <polygon id="路径" fill="#FF9932" opacity="0.75" points="0 -5.8197891e-13 16 -5.8197891e-13 16 3.53 0 3.53"></polygon>
                    <path d="M8.25926081,4.00564462 C8.35676081,4.02330087 8.45269831,4.04892587 8.54644831,4.08408212 C8.63691706,4.11798837 8.71754206,4.16970712 8.79082331,4.22658212 C8.86457331,4.28376962 8.92941706,4.35517587 8.98972956,4.43017587 C9.04441706,4.49830087 9.08644831,4.57220712 9.12316706,4.64908212 C9.15426081,4.71408212 9.17441706,4.78423837 9.19191706,4.85501962 C9.20551081,4.91033212 9.21504206,4.96611337 9.22082331,5.02205087 C9.22660456,5.07876962 9.22722956,5.13705087 9.22082331,5.19361337 C9.21144831,5.27626962 9.19863581,5.35892587 9.17035456,5.43783212 C9.15176081,5.48986337 9.13207331,5.54173837 9.10957331,5.59220712 C9.07660456,5.66611337 9.03441706,5.73642587 8.98144831,5.79611337 C8.91004206,5.87658212 8.83582331,5.95611337 8.74629206,6.01798837 C8.70426081,6.04689462 8.66144831,6.07673837 8.61488581,6.09626962 C8.54176081,6.12705087 8.46785456,6.15626962 8.39051081,6.17689462 C8.32801081,6.19345712 8.26537192,6.2034224 8.20203859,6.20669787 L8.01269831,6.20642587 L8.01269831,6.20642587 C7.90613581,6.20205087 7.80535456,6.17189462 7.70644831,6.13533212 C7.65691706,6.11705087 7.60863581,6.09423837 7.56222956,6.06908212 C7.51722956,6.04470712 7.46926081,6.02080087 7.43347956,5.98564462 C7.36597956,5.91908212 7.29582331,5.85517587 7.23566706,5.78033212 C7.18097956,5.71220712 7.13894831,5.63830087 7.10222956,5.56142587 C7.07113581,5.49642587 7.05097956,5.42626962 7.03347956,5.35548837 C7.01988581,5.30017587 7.01035456,5.24439462 7.00457331,5.18845712 C6.99879206,5.13173837 6.99816706,5.07345712 7.00457331,5.01689462 C7.01379206,4.93423837 7.02691706,4.85158212 7.05504206,4.77267587 C7.07363581,4.72064462 7.09332331,4.66876962 7.11582331,4.61830087 C7.14879206,4.54439462 7.19097956,4.47408212 7.24394831,4.41439462 C7.31535456,4.33392587 7.38941706,4.25392587 7.47926081,4.19283212 C7.52316706,4.16298837 7.57004206,4.13611337 7.61816706,4.11376962 C7.71519831,4.06876962 7.81379206,4.02720712 7.92254206,4.01939462 C7.97535456,3.98955087 8.03269831,4.00720712 8.08785456,4.00439462 C8.14504206,4.00158212 8.20379206,3.99548837 8.25926081,4.00564462 Z M8.12926081,4.12798837 C8.11394831,4.13001962 8.09785456,4.12986337 8.08254206,4.12798837 C8.05519831,4.12470712 8.04082331,4.13251962 8.02488581,4.15908212 C7.99863581,4.20267587 7.97785456,4.19923837 7.94097956,4.15830087 C7.93535456,4.15205087 7.92113581,4.14376962 7.92035456,4.14470712 C7.90207331,4.16595712 7.87207331,4.15033212 7.85691706,4.16142587 C7.83097956,4.18048837 7.77613581,4.16736337 7.78238581,4.22923837 C7.78488581,4.25330087 7.74019831,4.26595712 7.72301081,4.24298837 C7.70113581,4.21376962 7.68379206,4.23564462 7.66722956,4.23970712 C7.64676081,4.24470712 7.62738581,4.25720712 7.60957331,4.26939462 C7.58691706,4.28486337 7.56582331,4.30033212 7.56488581,4.33470712 C7.56394831,4.37142587 7.55004206,4.38439462 7.51832331,4.37689462 C7.48316706,4.36861337 7.45988581,4.37345712 7.43910456,4.40298837 C7.42722956,4.41970712 7.41097956,4.43376962 7.39519831,4.44736337 C7.37722956,4.46283212 7.37597956,4.47876962 7.38301081,4.50126962 C7.39363581,4.53517587 7.36316706,4.56408212 7.32832331,4.55423837 C7.31457331,4.55033212 7.30691706,4.54689462 7.29972956,4.56423837 C7.28957331,4.58908212 7.27379206,4.61126962 7.25941706,4.63392587 C7.24660456,4.65408212 7.22129206,4.67876962 7.24957331,4.71423837 C7.26863581,4.73814462 7.25144831,4.76251962 7.21769831,4.78173837 C7.20832331,4.78705087 7.19551081,4.79220712 7.19160456,4.80080087 C7.17551081,4.83626962 7.15660456,4.87158212 7.15988581,4.91251962 C7.16066706,4.92205087 7.16222956,4.93283212 7.16738581,4.94048837 C7.19926081,4.98783212 7.20207331,4.99939462 7.16441706,5.01705087 C7.15108373,5.02330087 7.14656984,5.02899532 7.14499577,5.03649532 L7.14410456,5.11970712 L7.14410456,5.11970712 C7.14410456,5.16095712 7.14441706,5.16064462 7.18066706,5.20486337 C7.18644831,5.21189462 7.18863581,5.22236337 7.19082331,5.23173837 C7.19597956,5.25470712 7.17785456,5.26111337 7.16566706,5.27548837 C7.13988581,5.30611337 7.17785456,5.40548837 7.21597956,5.42705087 C7.22863581,5.43423837 7.24660456,5.43908212 7.25207331,5.44986337 C7.25832331,5.46220712 7.26004206,5.48720712 7.25222956,5.49470712 C7.21597956,5.52970712 7.25113581,5.55455087 7.26207331,5.58095712 L7.29847956,5.63611337 L7.29847956,5.63611337 C7.30566706,5.65908212 7.30738581,5.66533212 7.33269831,5.65298837 C7.35316706,5.64298837 7.40035456,5.68564462 7.38941706,5.70064462 C7.36066706,5.73970712 7.39004206,5.75580087 7.41035456,5.77720712 C7.42660456,5.79408212 7.44488581,5.80923837 7.45957331,5.82736337 C7.47301081,5.84376962 7.48254206,5.83767587 7.50035456,5.83314462 C7.54519831,5.82173837 7.55801081,5.83408212 7.56629206,5.88048837 C7.56801081,5.89001962 7.56879206,5.90064462 7.57363581,5.90861337 C7.59441706,5.94314462 7.63519831,5.94861337 7.66629206,5.96814462 C7.68316706,5.97876962 7.70754206,5.97470712 7.72972956,5.95955087 C7.74957331,5.94595712 7.78238581,5.96095712 7.78332331,5.98376962 C7.78504206,6.02517587 7.80816706,6.02767587 7.83972956,6.03923837 C7.86207331,6.04751962 7.88597956,6.04111337 7.90379206,6.05330087 C7.92472956,6.06751962 7.92816706,6.07220712 7.94488581,6.04330087 C7.96551081,6.00751962 7.99441706,6.01376962 8.02301081,6.04626962 C8.05394831,6.08142587 8.05394831,6.08142587 8.08519831,6.08158212 L8.13988581,6.08158212 L8.13988581,6.08158212 C8.17207331,6.08142587 8.17207331,6.08142587 8.20238581,6.04705087 C8.23394831,6.01126962 8.25519831,6.00908212 8.28347956,6.04908212 C8.29582331,6.06642587 8.29910456,6.06892587 8.31582331,6.05955087 C8.32597956,6.05376962 8.33972956,6.05470712 8.35097956,6.05017587 C8.38832331,6.03470712 8.44488581,6.04611337 8.44519831,5.97814462 C8.44519831,5.96361337 8.47254206,5.94611337 8.48847956,5.95783212 C8.53910456,5.99501962 8.57785456,5.95798837 8.61754206,5.93970712 C8.64113581,5.92892587 8.66129206,5.90908212 8.66144831,5.87423837 C8.66176081,5.83783212 8.67457331,5.83111337 8.70941706,5.83173837 C8.76051081,5.83267587 8.76051081,5.83267587 8.78738581,5.80595712 C8.80207331,5.79126962 8.81613581,5.77564462 8.83176081,5.76205087 C8.85004206,5.74626962 8.84988581,5.73080087 8.84254206,5.70814462 C8.83129206,5.67408212 8.86113581,5.64814462 8.89879206,5.65673837 C8.91238581,5.65986337 8.92035456,5.66314462 8.92660456,5.64486337 C8.93519831,5.61939462 8.95379206,5.59830087 8.96769831,5.57564462 C8.98051081,5.55501962 9.00957331,5.52705087 8.97472956,5.49564462 C8.96676081,5.48845712 8.96926081,5.46470712 8.97394831,5.45095712 C8.97676081,5.44267587 8.99644831,5.44142587 9.00301081,5.43283212 C9.01191706,5.42111337 9.03004206,5.43111337 9.03676081,5.40923837 C9.04832331,5.37205087 9.06894831,5.33751962 9.06597956,5.29673837 C9.06535456,5.28751962 9.06285456,5.27689462 9.05754206,5.26955087 C9.02519831,5.22548837 9.02363581,5.21517587 9.06254206,5.19267587 C9.07519831,5.18533212 9.08285456,5.18314462 9.08207331,5.16767587 L9.08137019,5.13628916 L9.08137019,5.13628916 L9.08176081,5.07376962 C9.08316706,5.04626962 9.08426081,5.02236337 9.05004206,5.00876962 C9.03004206,5.00080087 9.02691706,4.94673837 9.04269831,4.94392587 C9.07910456,4.93767587 9.06816706,4.91298837 9.06488581,4.89814462 C9.05488581,4.85314462 9.05519831,4.80189462 9.00363581,4.77642587 C8.96816706,4.75892587 8.96332331,4.74876962 8.98004206,4.70830087 C8.98894831,4.68673837 8.98941706,4.67376962 8.97582331,4.65392587 C8.95551081,4.62423837 8.94254206,4.58970712 8.92426081,4.55845712 C8.92144831,4.55361337 8.90691706,4.55283212 8.89847956,4.55439462 C8.86066706,4.56111337 8.83097956,4.53626962 8.84222956,4.50220712 C8.84957331,4.47955087 8.84957331,4.46423837 8.83144831,4.44830087 C8.81207331,4.43111337 8.79285456,4.41298837 8.77644831,4.39298837 C8.75926081,4.37220712 8.74285456,4.37095712 8.71660456,4.37705087 C8.6911879,4.38298837 8.67563234,4.37948143 8.66762308,4.36532634 L8.66097956,4.33595712 C8.65926081,4.29892587 8.63988581,4.28189462 8.61019831,4.26892587 C8.58816706,4.25923837 8.56582331,4.24970712 8.54535456,4.23720712 C8.53222956,4.22908212 8.52676081,4.22251962 8.51035456,4.23705087 C8.47582331,4.26736337 8.45363581,4.25970712 8.44238581,4.21423837 C8.43660456,4.19080087 8.42441706,4.18330087 8.40472956,4.17439462 C8.37332331,4.16017587 8.33582331,4.16830087 8.30722956,4.14486337 C8.30472956,4.14283212 8.29082331,4.15111337 8.28535456,4.15720712 C8.24988581,4.19705087 8.22972956,4.20236337 8.20754206,4.16548837 C8.18722956,4.13158212 8.16410456,4.12330087 8.12926081,4.12798837 Z M8.11597956,4.31564462 C8.12035456,4.32064462 8.12504206,4.32533212 8.12894831,4.33064462 C8.13019831,4.33236337 8.12910456,4.33564462 8.12910456,4.33830087 C8.12910456,4.38001962 8.12597956,4.42189462 8.13004206,4.46314462 L8.13080595,4.54747333 C8.13209067,4.56172101 8.13514623,4.57616546 8.14176081,4.59095712 C8.15722956,4.62580087 8.14691706,4.67298837 8.14441706,4.71455087 C8.14144831,4.76455087 8.13426081,4.81439462 8.12941706,4.86439462 C8.12847956,4.87470712 8.12769831,4.88548837 8.12988581,4.89548837 C8.13113581,4.90095712 8.13847956,4.90814462 8.14347956,4.90861337 C8.14894831,4.90892587 8.16019831,4.90126962 8.15972956,4.89876962 C8.15332331,4.86470712 8.17613581,4.83455087 8.17472956,4.80361337 C8.17191706,4.73908212 8.19785456,4.68361337 8.21754206,4.62548837 C8.24691706,4.53861337 8.27347956,4.45080087 8.30129206,4.36330087 C8.30269831,4.35876962 8.30472956,4.35423837 8.30644831,4.34986337 C8.30988581,4.35439462 8.31629206,4.35876962 8.31644831,4.36361337 C8.31941706,4.41142587 8.30160456,4.45626962 8.29379206,4.50251962 C8.28785456,4.53861337 8.27488581,4.57361337 8.27066706,4.60970712 C8.26129206,4.68798837 8.23457331,4.76080087 8.20754206,4.83361337 C8.20004206,4.85392587 8.19379206,4.87517587 8.18332331,4.89376962 C8.17597956,4.90689462 8.17113581,4.91923837 8.18629206,4.92376962 C8.19441706,4.92611337 8.21191706,4.91595712 8.21660456,4.90705087 C8.22863581,4.88376962 8.23504206,4.85751962 8.24535456,4.83314462 C8.27519831,4.76330087 8.31441706,4.69955087 8.35988581,4.63798837 C8.40597956,4.57564462 8.44191706,4.50580087 8.48301081,4.43955087 C8.48629206,4.43423837 8.49379206,4.43158212 8.49926081,4.42783212 C8.50097956,4.43486337 8.50629206,4.44376962 8.50379206,4.44876962 C8.44722956,4.56345712 8.39207331,4.67876962 8.33160456,4.79126962 C8.30722956,4.83658212 8.27066706,4.87564462 8.23910456,4.91705087 C8.23019831,4.92876962 8.21191706,4.93876962 8.23035456,4.95376962 C8.23472956,4.95720712 8.25410456,4.94908212 8.26097956,4.94126962 C8.29113581,4.90751962 8.32347956,4.87455087 8.34691706,4.83626962 C8.36472956,4.80720712 8.38379206,4.78439462 8.41363581,4.76861337 C8.42676081,4.76173837 8.43722956,4.74955087 8.44832331,4.73923837 C8.52722956,4.66564462 8.60613581,4.59205087 8.68488581,4.51845712 C8.69051081,4.51330087 8.69582331,4.50736337 8.70238581,4.50408212 C8.70613581,4.50220712 8.71254206,4.50376962 8.71691706,4.50580087 C8.71863581,4.50658212 8.71863581,4.51283212 8.71801081,4.51626962 C8.71769831,4.51830087 8.71457331,4.52001962 8.71269831,4.52189462 L8.48097956,4.76970712 L8.48097956,4.76970712 C8.46426081,4.78783212 8.45379206,4.81220712 8.43597956,4.82861337 C8.39894831,4.86267587 8.35894831,4.89345712 8.32019831,4.92533212 C8.30082331,4.94126962 8.28097956,4.95658212 8.26222956,4.97314462 C8.25988581,4.97517587 8.26113581,4.98658212 8.26426081,4.98861337 C8.27019831,4.99267587 8.28129206,4.99751962 8.28551081,4.99486337 C8.32238581,4.97017587 8.36238581,4.94814462 8.39347956,4.91705087 C8.41785456,4.89278004 8.44604901,4.87691199 8.47505364,4.86240967 L8.77660456,4.70876962 L8.77660456,4.70876962 C8.78191706,4.70611337 8.79051081,4.70970712 8.79754206,4.71033212 C8.79472956,4.71580087 8.79332331,4.72376962 8.78894831,4.72658212 C8.67144831,4.79689462 8.56613581,4.88611337 8.44316706,4.94751962 C8.40238581,4.96798837 8.35957331,4.98470712 8.31801081,5.00361337 C8.30926081,5.00767587 8.30066706,5.01330087 8.29379206,5.02001962 C8.29129206,5.02251962 8.29285456,5.03189462 8.29566706,5.03580087 C8.29941706,5.04095712 8.30816706,5.04861337 8.31144831,5.04720712 C8.34051081,5.03564462 8.36926081,5.02298837 8.39722956,5.00908212 C8.44972956,4.98283212 8.50676081,4.96970712 8.56316706,4.95767587 C8.64722956,4.93986337 8.73004206,4.91423837 8.81676081,4.90861337 C8.83504206,4.90736337 8.85082331,4.88736337 8.87285456,4.89408212 C8.87972956,4.89626962 8.88676081,4.89830087 8.89363581,4.90033212 C8.88816706,4.90345712 8.88301081,4.90767587 8.87722956,4.90955087 C8.76004206,4.94720712 8.64254206,4.98392587 8.52551081,5.02205087 C8.47832331,5.03736337 8.43066706,5.04986337 8.38097956,5.04970712 C8.34988581,5.04955087 8.32379206,5.05720712 8.30176081,5.07861337 C8.30051081,5.07986337 8.30051081,5.08517587 8.30176081,5.08595712 C8.32926081,5.10408212 8.35566706,5.10142587 8.38441706,5.08611337 C8.39676081,5.07955087 8.41410456,5.08173837 8.42926081,5.08173837 C8.52566706,5.08142587 8.62285456,5.07298837 8.71801081,5.08408212 C8.80988581,5.09470712 8.90113581,5.09626962 8.99301081,5.09767587 C8.99676081,5.09767587 9.00051081,5.10283212 9.00426081,5.10564462 C9.00004206,5.10814462 8.99597956,5.11095712 8.99160456,5.11283212 C8.98941706,5.11376962 8.98644831,5.11298837 8.98379206,5.11298837 C8.80347956,5.10939462 8.62410456,5.14080087 8.44347956,5.12830087 C8.40379206,5.12548837 8.36457331,5.11751962 8.32488581,5.11376962 C8.31754206,5.11314462 8.30926081,5.12126962 8.30144831,5.12533212 C8.30707331,5.13158212 8.31160456,5.14001962 8.31863581,5.14376962 C8.33129206,5.15064462 8.34535456,5.15923837 8.35879206,5.15908212 C8.48207331,5.15814462 8.59222956,5.21001962 8.70629206,5.24486337 C8.75926081,5.26095712 8.81066706,5.28173837 8.86285456,5.30048837 L8.89269831,5.31080087 L8.89269831,5.31080087 C8.88035456,5.31251962 8.86738581,5.31798837 8.85597956,5.31548837 C8.78926081,5.30111337 8.72363581,5.27955087 8.65644831,5.27064462 C8.58535456,5.26111337 8.51769831,5.24158212 8.44972956,5.22158212 C8.40597956,5.20876962 8.36285456,5.19189462 8.32254206,5.17080087 C8.30691706,5.16267587 8.30285456,5.16517587 8.29410456,5.17470712 C8.27816706,5.19205087 8.29941706,5.19751962 8.30566706,5.20158212 C8.32363581,5.21330087 8.34347956,5.22408212 8.36410456,5.22955087 C8.45051081,5.25267587 8.52004206,5.30720712 8.59441706,5.35220712 C8.65941706,5.39142587 8.72129206,5.43595712 8.78410456,5.47908212 C8.79035456,5.48330087 8.79254206,5.49345712 8.79660456,5.50080087 C8.78769831,5.49908212 8.77801081,5.49908212 8.77004206,5.49517587 C8.69832331,5.46064462 8.62676081,5.42611337 8.55566706,5.39033212 C8.47660456,5.35048837 8.39738581,5.31095712 8.33347956,5.24736337 C8.31972956,5.23376962 8.30176081,5.22439462 8.28488581,5.21423837 C8.28113581,5.21205087 8.27222956,5.21361337 8.26894831,5.21673837 C8.26347956,5.22205087 8.24847956,5.22705087 8.26285456,5.23845712 C8.30191706,5.26970712 8.34191706,5.29986337 8.38019831,5.33220712 C8.40722956,5.35501962 8.43269831,5.38001962 8.45754206,5.40533212 C8.46754206,5.41564462 8.47238581,5.43111337 8.48222956,5.44173837 C8.55722956,5.52283212 8.63301081,5.60330087 8.70816706,5.68423837 C8.71301081,5.68955087 8.71379206,5.69876962 8.71660456,5.70611337 C8.70769831,5.70298837 8.69660456,5.70220712 8.69019831,5.69626962 C8.61269831,5.62501962 8.53629206,5.55267587 8.45863581,5.48158212 C8.43847956,5.46314462 8.41254206,5.45080087 8.39410456,5.43111337 C8.35629206,5.39048837 8.32160456,5.34689462 8.28613581,5.30423837 C8.27676081,5.29298837 8.27097956,5.27814462 8.26035456,5.26845712 C8.25254206,5.26142587 8.23519831,5.25392587 8.22957331,5.25767587 C8.21519831,5.26736337 8.22566706,5.27830087 8.23457331,5.28876962 C8.35566706,5.42892587 8.41254206,5.60580087 8.50410456,5.76298837 C8.50660456,5.76720712 8.50051081,5.77658212 8.49847956,5.78345712 C8.49301081,5.77908212 8.48504206,5.77564462 8.48222956,5.76986337 C8.44972956,5.70361337 8.40613581,5.64455087 8.36426081,5.58439462 C8.35035456,5.56455087 8.34191706,5.54080087 8.32676081,5.52205087 C8.27707331,5.46033212 8.24644831,5.38955087 8.22285456,5.31486337 C8.22004206,5.30595712 8.21254206,5.29751962 8.20519831,5.29126962 C8.20019831,5.28705087 8.19004206,5.28376962 8.18504206,5.28595712 C8.18035456,5.28814462 8.17519831,5.29970712 8.17707331,5.30455087 C8.18566706,5.32689462 8.19894831,5.34767587 8.20660456,5.37033212 C8.23191706,5.44626962 8.25691706,5.52189462 8.27238581,5.60126962 C8.28488581,5.66533212 8.28644831,5.73283212 8.31629206,5.79361337 C8.32144831,5.80408212 8.31769831,5.81939462 8.31676081,5.83236337 C8.31597956,5.84205087 8.31316706,5.85158212 8.31113581,5.86126962 C8.30785456,5.85095712 8.30519831,5.84033212 8.30129206,5.83017587 C8.25941706,5.71955087 8.22301081,5.60720712 8.18769831,5.49439462 C8.18238581,5.47767587 8.17832331,5.46173837 8.17629206,5.44455087 L8.16004206,5.31048837 L8.16004206,5.31048837 C8.15941706,5.30642587 8.14816706,5.30095712 8.14254206,5.30158212 C8.13769831,5.30220712 8.12957331,5.31126962 8.13019831,5.31564462 C8.13535456,5.35517587 8.11410456,5.39814462 8.14519831,5.43423837 C8.14113581,5.47819671 8.14804554,5.5227106 8.14611267,5.56685412 L8.13410456,5.63267587 C8.12910456,5.64642587 8.12972956,5.66267587 8.12972956,5.67767587 C8.12926081,5.74283212 8.13004206,5.80783212 8.12894831,5.87298837 C8.12879206,5.88017587 8.12004206,5.88720712 8.11519831,5.89439462 C8.10957331,5.88814462 8.09941706,5.88189462 8.09910456,5.87533212 L8.098128,5.82070322 L8.098128,5.82070322 L8.09832331,5.76595712 C8.09785456,5.76564462 8.09863581,5.76564462 8.09926081,5.76564462 C8.09332331,5.67673837 8.08441706,5.58783212 8.08269831,5.49892587 C8.08160456,5.44658212 8.09207331,5.39392587 8.09707331,5.34142587 C8.09801081,5.33111337 8.09910456,5.32001962 8.09644831,5.31048837 C8.09519831,5.30595712 8.08535456,5.30236337 8.07894831,5.30111337 C8.07535456,5.30048837 8.06722956,5.30517587 8.06707331,5.30798837 C8.06457331,5.33767587 8.07129206,5.36892587 8.05051081,5.39501962 C8.06207331,5.47267587 8.02301081,5.53923837 8.00301081,5.60970712 C7.97988581,5.69095712 7.95160456,5.77064462 7.92535456,5.85080087 L7.91754206,5.86267587 L7.91754206,5.86267587 C7.91504206,5.85845712 7.90988581,5.85408212 7.91035456,5.85017587 C7.91644831,5.80345712 7.91769831,5.75486337 7.93176081,5.71064462 C7.94301081,5.67533212 7.94863581,5.63845712 7.95441706,5.60361337 C7.96707331,5.52564462 7.99113581,5.45251962 8.01957331,5.38001962 C8.02926081,5.35533212 8.04097956,5.33158212 8.05004206,5.30673837 C8.05207331,5.30126962 8.04832331,5.29033212 8.04363581,5.28705087 C8.03926081,5.28408212 8.02847956,5.28564462 8.02347956,5.28939462 C8.01551081,5.29517587 8.00426081,5.30470712 8.00472956,5.31205087 C8.00691706,5.34486337 7.98082331,5.36548837 7.97301081,5.39298837 C7.95660456,5.45048837 7.92176081,5.49783212 7.88957331,5.54564462 C7.84035456,5.61876962 7.78613581,5.68845712 7.74644831,5.76767587 C7.74347956,5.77361337 7.73222956,5.77548837 7.72488581,5.77923837 C7.72519831,5.77220712 7.72316706,5.76408212 7.72597956,5.75830087 C7.76785456,5.67408212 7.81176081,5.59080087 7.85222956,5.50595712 C7.88941706,5.42798837 7.93972956,5.35892587 7.99035456,5.28970712 C7.99660456,5.28126962 8.00316706,5.26376962 7.99910456,5.25876962 C7.98847956,5.24548837 7.97660456,5.25548837 7.96816706,5.26580087 L7.87879206,5.37705087 L7.87879206,5.37705087 C7.86285456,5.39658212 7.85004206,5.42298837 7.82926081,5.43345712 C7.79332331,5.45142587 7.77051081,5.48158212 7.74269831,5.50705087 C7.67285456,5.57095712 7.60379206,5.63580087 7.53347956,5.69939462 C7.52816706,5.70423837 7.51613581,5.70158212 7.50722956,5.70236337 C7.51035456,5.69689462 7.51269831,5.69048837 7.51691706,5.68595712 L7.56082331,5.64158212 L7.56082331,5.64158212 C7.62551081,5.57205087 7.69597956,5.50705087 7.75238581,5.43126962 C7.80019831,5.36720712 7.85847956,5.32080087 7.92332331,5.27845712 C7.94035456,5.26736337 7.95363581,5.24986337 7.96722956,5.23439462 C7.96894831,5.23251962 7.96426081,5.22251962 7.96019831,5.21861337 C7.95629206,5.21486337 7.94707331,5.21033212 7.94441706,5.21220712 C7.90769831,5.23720712 7.86738581,5.25892587 7.83644831,5.29001962 C7.79113581,5.33548837 7.73316706,5.35486337 7.67910456,5.38298837 C7.60191706,5.42298837 7.52504206,5.46361337 7.44754206,5.50298837 C7.44285456,5.50533212 7.43394831,5.49939462 7.42707331,5.49720712 C7.42972956,5.49345712 7.43176081,5.48876962 7.43535456,5.48626962 C7.50457331,5.43970712 7.57410456,5.39361337 7.64332331,5.34720712 C7.69988581,5.30923837 7.75582331,5.26861337 7.81941706,5.24455087 C7.85566706,5.23080087 7.89129206,5.21658212 7.92519831,5.19830087 C7.93066706,5.19533212 7.93613581,5.17970712 7.93410456,5.17767587 C7.92754206,5.17126962 7.92644831,5.15892587 7.90660456,5.16876962 C7.80222956,5.22017587 7.66816706,5.25095712 7.57379206,5.27142587 C7.50988581,5.28517587 7.44254206,5.28751962 7.38160456,5.31548837 C7.37301081,5.31939462 7.36082331,5.31705087 7.35066706,5.31564462 C7.34441706,5.31486337 7.33879206,5.31017587 7.33301081,5.30720712 C7.33722956,5.30501962 7.34129206,5.30173837 7.34582331,5.30064462 C7.46582331,5.27173837 7.57863581,5.22017587 7.69847956,5.18939462 C7.74363581,5.17783212 7.78816706,5.16533212 7.83441706,5.16001962 C7.85222956,5.15798837 7.87160456,5.16236337 7.88801081,5.15705087 C7.90222956,5.15236337 7.92394831,5.13783212 7.92379206,5.12814462 C7.92301081,5.09830087 7.89394831,5.11095712 7.88207331,5.11423837 C7.77816706,5.14205087 7.67254206,5.12580087 7.56801081,5.12783212 C7.45816706,5.12986337 7.34926081,5.10251962 7.23863581,5.11267587 C7.23441706,5.11314462 7.22972956,5.10939462 7.22519831,5.10767587 C7.22988581,5.10423837 7.23504206,5.09751962 7.23941706,5.09783212 C7.37082331,5.10908212 7.50019831,5.07517587 7.63129206,5.08142587 C7.67551081,5.08345712 7.71988581,5.08017587 7.76410456,5.08220712 C7.79613581,5.08376962 7.82910456,5.07298837 7.86019831,5.09595712 C7.87207331,5.10470712 7.89566706,5.09845712 7.91379206,5.09658212 C7.91832331,5.09611337 7.92332331,5.08705087 7.92535456,5.08111337 C7.92644831,5.07767587 7.92316706,5.07001962 7.91988581,5.06845712 C7.90457331,5.06158212 7.88847956,5.05126962 7.87269831,5.05111337 C7.74441706,5.05080087 7.62972956,5.00080087 7.51254206,4.95814462 C7.45801081,4.93830087 7.40097956,4.92564462 7.34519831,4.90955087 C7.34066706,4.90830087 7.33676081,4.90486337 7.33254206,4.90236337 C7.33629206,4.89955087 7.34004206,4.89455087 7.34379206,4.89455087 C7.35910456,4.89455087 7.38004206,4.89001962 7.38832331,4.89814462 C7.40707331,4.91626962 7.42754206,4.90595712 7.44660456,4.91001962 C7.46551081,4.91408212 7.48363581,4.92189462 7.50269831,4.92501962 C7.59676081,4.94048837 7.69019831,4.96001962 7.78113581,4.98845712 C7.82457331,5.00205087 7.86769831,5.01939462 7.90722956,5.04173837 C7.92722956,5.05298837 7.92676081,5.03611337 7.93566706,5.03251962 C7.93207331,5.02517587 7.93051081,5.01392587 7.92472956,5.01111337 C7.88801081,4.99330087 7.85082331,4.97564462 7.81269831,4.96111337 C7.72722956,4.92845712 7.65894831,4.86767587 7.58129206,4.82220712 C7.53269831,4.79376962 7.48707331,4.76033212 7.44035456,4.72861337 C7.43488581,4.72486337 7.43191706,4.71783212 7.42769831,4.71236337 C7.43660456,4.71220712 7.44707331,4.70892587 7.45410456,4.71236337 C7.55801081,4.76314462 7.66254206,4.81298837 7.76472956,4.86751962 C7.80582331,4.88939462 7.84144831,4.92158212 7.87926081,4.94955087 C7.90129206,4.96580087 7.92254206,4.98298837 7.94504206,4.99861337 C7.94754206,5.00033212 7.95691706,4.99517587 7.96082331,4.99111337 C7.96457331,4.98720712 7.96832331,4.97673837 7.96676081,4.97548837 C7.92863581,4.94267587 7.88910456,4.91142587 7.85113581,4.87845712 C7.82301081,4.85392587 7.79613581,4.82783212 7.76972956,4.80158212 C7.76113581,4.79298837 7.75644831,4.78064462 7.74816706,4.77173837 L7.51660456,4.52376962 L7.51660456,4.52376962 C7.51254206,4.51939462 7.51082331,4.51283212 7.50801081,4.50736337 L7.53457331,4.51111337 L7.53457331,4.51111337 C7.53676081,4.51158212 7.53816706,4.51470712 7.54019831,4.51642587 L7.78254206,4.74267587 L7.78254206,4.74267587 C7.80457331,4.76283212 7.83582331,4.77548837 7.85176081,4.79908212 C7.87972956,4.84033212 7.92301081,4.86970712 7.94176081,4.91767587 C7.94347956,4.92205087 7.94910456,4.92486337 7.95254206,4.92892587 C7.97504206,4.95548837 7.99472956,4.96470712 8.00113581,4.95158212 C8.01269831,4.92783212 7.98879206,4.92142587 7.97879206,4.90845712 C7.87066706,4.76908212 7.81144831,4.60251962 7.72535456,4.45095712 C7.72238581,4.44580087 7.72566706,4.43705087 7.72597956,4.43001962 C7.73144831,4.43251962 7.73972956,4.43345712 7.74222956,4.43783212 C7.80535456,4.54876962 7.87832331,4.65330087 7.95254206,4.75689462 C7.95457331,4.80767587 7.99754206,4.84251962 8.00488581,4.89158212 C8.00660456,4.90251962 8.01644831,4.91330087 8.02488581,4.92173837 C8.02863581,4.92533212 8.04082331,4.92580087 8.04488581,4.92236337 C8.04941706,4.91861337 8.05269831,4.90736337 8.05035456,4.90220712 C8.02363581,4.84533212 7.99926081,4.78783212 7.98410456,4.72642587 C7.97535456,4.69111337 7.96316706,4.65689462 7.95613581,4.62064462 C7.94316706,4.55361337 7.93519831,4.48533212 7.91363581,4.41986337 C7.90754206,4.40111337 7.91066706,4.37923837 7.91066706,4.35876962 C7.91066706,4.35517587 7.91597956,4.35158212 7.91879206,4.34798837 C7.92113581,4.35220712 7.92472956,4.35611337 7.92582331,4.36064462 C7.95472956,4.48064462 8.00879206,4.59283212 8.03566706,4.71361337 C8.03816706,4.72501962 8.04894831,4.73501962 8.05035456,4.74626962 C8.05676081,4.79595712 8.06097956,4.84611337 8.06707331,4.89580087 C8.06769831,4.90095712 8.07582331,4.90845712 8.08082331,4.90876962 C8.08629206,4.90908212 8.09738581,4.90173837 8.09707331,4.89876962 L8.09433894,4.83914072 L8.09433894,4.83914072 L8.08785456,4.77845712 C8.07441706,4.71923837 8.08301081,4.65486337 8.08222956,4.59267587 C8.10926081,4.56455087 8.09613581,4.52955087 8.09722956,4.49751962 C8.09926081,4.44298837 8.09722956,4.38814462 8.09863581,4.33345712 C8.09879206,4.32736337 8.10988581,4.32158212 8.11597956,4.31564462 Z" id="形状结合" fill="#000088"></path>
                </g>
                <rect id="矩形备份-72" x="0" y="0" width="18" height="18"></rect>
            </g>
        </g>
    </g>
</svg>