<?xml version="1.0" encoding="UTF-8"?>
<svg width="16px" height="11px" viewBox="0 0 16 11" version="1.1" xmlns="http://www.w3.org/2000/svg" xmlns:xlink="http://www.w3.org/1999/xlink">
    <!-- Generator: Sketch 57 (83077) - https://sketch.com -->
    <title>墨西哥</title>
    <desc>Created with Sketch.</desc>
    <g id="清华主页" stroke="none" stroke-width="1" fill="none" fill-rule="evenodd">
        <g id="首页素材" transform="translate(-169.000000, -572.000000)">
            <g id="墨西哥" transform="translate(168.000000, 569.000000)">
                <rect id="矩形" x="0" y="0" width="18" height="18"></rect>
                <g id="编组-37" transform="translate(1.000000, 3.000000)" fill-rule="nonzero">
                    <path d="M1.14251646,0 L14.8527139,0 C15.5191819,0 15.8524158,0.329059832 15.8524158,0.987179496 L15.8524158,10.0128205 C15.8524158,10.6709402 15.5191819,11 14.8527139,11 L1.14251646,11 C0.476048529,11 0.142814551,10.6709402 0.142814551,10.0128205 L0.142814551,0.987179496 C0.142814551,0.32905984 0.476048521,0 1.14251646,0 Z" id="路径" fill="#FFFFFF"></path>
                    <path d="M14.8527139,11 L1.14251646,11 C0.511522043,11 -1.95399252e-14,10.5075132 -1.95399252e-14,9.9 L-1.95399252e-14,1.1 C-1.95399252e-14,0.492486777 0.511522043,0 1.14251646,0 L14.8527139,0 C15.4837083,0 15.9952304,0.492486777 15.9952304,1.1 L15.9952304,9.9 C15.9952304,10.5075132 15.4837083,11 14.8527139,11 L14.8527139,11 Z M1.14251646,0.275000001 C0.669270647,0.275000001 0.285629115,0.644365084 0.285629115,1.1 L0.285629115,9.9 C0.285629115,10.1188036 0.375908058,10.3286456 0.536605608,10.4833631 C0.697303157,10.6380806 0.915255806,10.725 1.14251646,10.725 L14.8527139,10.725 C15.0799746,10.725 15.2979272,10.6380806 15.4586248,10.4833631 C15.6193223,10.3286456 15.7096013,10.1188036 15.7096013,9.9 L15.7096013,1.1 C15.7096013,0.644365084 15.3259597,0.275000001 14.8527139,0.275000001 L1.14251646,0.275000001 Z" id="形状" fill="#F5F5F5"></path>
                    <polygon id="路径" fill="#E3283E" points="10.6653911 0 15.9952304 0 15.9952304 11 10.6653911 11"></polygon>
                    <polygon id="路径" fill="#128A60" points="1.55431223e-14 11 5.32983927 11 5.32983927 0 1.55431223e-14 0"></polygon>
                    <path d="M6.85509873,5.32983927 C6.85197676,5.12069039 6.6815279,4.95278554 6.47235573,4.95280883 C6.37236104,4.95280883 6.27646187,4.99253156 6.20575495,5.06323849 C6.13504802,5.13394541 6.09532529,5.22984458 6.09532529,5.32983927 L6.85509873,5.32983927 Z M7.04361395,6.98077555 C7.22162175,7.05839294 7.42954432,6.99040178 7.52730223,6.82260836 C7.62506014,6.65481494 7.5816669,6.44040501 7.42635696,6.32382859 L7.04361395,6.98077555 Z M8.61457407,6.2838405 C8.50028316,6.35629278 8.43332683,6.48421491 8.43892688,6.61941988 C8.44452693,6.75462485 8.52183259,6.87657181 8.64172356,6.9393245 C8.76161452,7.00207719 8.90587651,6.996102 9.02016742,6.92364973 L8.61457407,6.2838405 Z M9.8999051,5.3184141 C9.8999051,5.21841941 9.86018236,5.12252024 9.78947544,5.05181332 C9.71876851,4.9811064 9.62286935,4.94138367 9.52287466,4.94138367 C9.31370249,4.94136038 9.14325363,5.10926523 9.14013165,5.3184141 L9.8999051,5.3184141 Z M6.09532437,5.3184141 C6.0946594,5.99838661 6.4559201,6.62732845 7.04361395,6.96935039 L7.42635696,6.32382859 C7.07145229,6.11892858 6.85347178,5.73964251 6.85509873,5.32983927 L6.09532437,5.3184141 Z M9.02016742,6.92364973 C9.57012887,6.57562945 9.90245836,5.96923603 9.8999051,5.3184141 L9.14013165,5.3184141 C9.14143249,5.70888861 8.94322602,6.07298527 8.61457407,6.2838405 L9.02016742,6.92364973 Z" id="形状" fill="#8C9157"></path>
                    <path d="M7.99761519,6.09532529 C8.42034628,6.09532529 8.75738864,5.58119288 8.75738864,4.95280883 C8.75738864,4.32442478 8.42034628,3.81029238 7.99761519,3.81029238 C7.57488411,3.81029238 7.23784175,4.3187122 7.23784175,4.95280883 C7.23784175,5.58690546 7.57488411,6.09532529 7.99761519,6.09532529 Z" id="路径" fill="#C59262"></path>
                </g>
            </g>
        </g>
    </g>
</svg>