<?xml version="1.0" encoding="UTF-8"?>
<svg width="18px" height="18px" viewBox="0 0 18 18" version="1.1" xmlns="http://www.w3.org/2000/svg" xmlns:xlink="http://www.w3.org/1999/xlink">
    <!-- Generator: Sketch 57 (83077) - https://sketch.com -->
    <title>南非_slice</title>
    <desc>Created with Sketch.</desc>
    <g id="空探5.0" stroke="none" stroke-width="1" fill="none" fill-rule="evenodd">
        <g id="画板" transform="translate(-1162.000000, -894.000000)" fill-rule="nonzero">
            <g id="南非" transform="translate(1162.000000, 894.000000)">
                <rect id="矩形" fill="#000000" opacity="0" x="0" y="0" width="18" height="18"></rect>
                <polygon id="路径" fill="#000000" opacity="0.75" points="4.32719288 7.9963752 3.20163001 7.32099041 1 6 1 12 3.21967921 10.6681352 4.34524208 9.99291769 6 9"></polygon>
                <polygon id="路径" fill="#002395" opacity="0.75" points="14.8346331 11 9.40226293 11 8.86740516 11.2970118 4 14 17 14 17 11"></polygon>
                <polygon id="路径" fill="#FFB612" opacity="0.75" points="6.37241745 8.58174201 5.41250221 7.94174201 4.34451704 7.22959206 1 5 1 5.83669239 3.08935193 7.22959206 4.15751369 7.94174201 5.74501148 9 4.17464242 10.046968 3.10648066 10.7589416 1 12.1633076 1 13 4.36164577 10.7589416 5.42963094 10.046968 6.37241745 9.4184344 7 9"></polygon>
                <polygon id="路径" fill="#DE3831" opacity="0.75" points="15.0260241 4 4 4 8.86796694 6.70854981 9.39177114 7 17 7 17 4"></polygon>
                <polygon id="路径" fill="#FFFFFF" opacity="0.75" points="14.8818539 7.3232755 9.54612424 7.3232755 9.03294679 7.00041908 4.26373947 4 3 4 8.28238477 7.3232755 8.40098815 7.39803872 9.03294679 7.79549074 9.35781693 8 17 8 17 7.3232755"></polygon>
                <polygon id="路径" fill="#007A4D" opacity="0.75" points="13.7928571 7.99631553 9.32535714 7.99631553 8.99910714 7.79199464 8.36446429 7.39490873 8.24535714 7.32021437 2.94053571 4 1 4 1 5.2034835 4.38214286 7.32021437 5.46214286 7.99631553 6.43285714 8.60391894 7.0675 9.00100486 6.43285714 9.39825825 5.47946429 9.99497572 4.39946429 10.6709094 1 12.7985262 1 14 2.93125 14 8.25017857 10.6709094 8.35839286 10.603249 8.99285714 10.2061631 9.33035714 9.99497572 17 9.99497572 17 7.99631553"></polygon>
                <polygon id="路径" fill="#FFFFFF" opacity="0.75" points="13.8037317 10 9.36783652 10 9.03198578 10.2109225 8.40062195 10.6075102 8.29293647 10.6750857 3 14 4.26308307 14 9.03198578 11.0042653 9.55601955 10.6750857 17 10.6750857 17 10"></polygon>
                <polygon id="路径" fill="#007A4D" points="3 4.140625 2.63857057 3.859375 1 3.859375 1 4.140625"></polygon>
                <polygon id="路径" fill="#EEEEEE" points="5 4.140625 4.49558081 3.859375 3 3.859375 3.50441919 4.140625"></polygon>
                <polygon id="路径" fill="#DE3831" points="17 4.140625 17 3.859375 4 3.859375 4.43505152 4.140625"></polygon>
                <polygon id="路径" fill="#DE3831" points="16.859375 7 17.140625 7 17.140625 4 16.859375 4"></polygon>
                <polygon id="路径" fill="#EEEEEE" points="16.859375 7 17.140625 7 17.140625 8 16.859375 8"></polygon>
                <polygon id="路径" fill="#007A4D" points="16.859375 8 17.140625 8 17.140625 10 16.859375 10"></polygon>
                <polygon id="路径" fill="#EEEEEE" points="16.859375 10 17.140625 10 17.140625 11 16.859375 11"></polygon>
                <polygon id="路径" fill="#002395" points="16.859375 14 17.140625 14 17.140625 11 16.859375 11"></polygon>
                <polygon id="路径" fill="#002395" points="4.43474197 13.859375 4 14.140625 17 14.140625 17 13.859375"></polygon>
                <polygon id="路径" fill="#EEEEEE" points="3.50457654 13.859375 3 14.140625 4.49563388 14.140625 5 13.859375"></polygon>
                <polygon id="路径" fill="#007A4D" points="1 13.859375 1 14.140625 2.63702414 14.140625 3 13.859375"></polygon>
                <path d="M2,12.6198292 L1,12.7985262 L1,14 L2,14 L2,12.6198292 Z M2,4 L1,4 L1,5.2034835 L2,5.38234802 L2,4 Z" id="形状" fill="#007A4D"></path>
                <path d="M2,5.18840132 L1,5 L1,5.83669239 L2,6.02509372 L2,5.18840132 Z M2,11.9750827 L1,12.1633076 L1,13 L2,12.8117751 L2,11.9750827 Z" id="形状" fill="#FFB612"></path>
                <polygon id="路径" fill="#000000" points="1.140625 6.17867499 0.859375 6 0.859375 12 1.140625 11.8214923"></polygon>
            </g>
        </g>
    </g>
</svg>