<?xml version="1.0" encoding="UTF-8"?>
<svg width="15px" height="14px" viewBox="0 0 15 14" version="1.1" xmlns="http://www.w3.org/2000/svg" xmlns:xlink="http://www.w3.org/1999/xlink">
    <title>未知</title>
    <g id="页面-1" stroke="none" stroke-width="1" fill="none" fill-rule="evenodd">
        <g id="切图+规则描述" transform="translate(-304.000000, -2520.000000)" fill="#45DAD1" fill-rule="nonzero">
            <path d="M307.768984,2520 L308.207037,2520 C309.019307,2519.99971 309.798409,2520.32217 310.372875,2520.89643 C310.94734,2521.47069 311.270089,2522.24968 311.270089,2523.06195 L311.270089,2526.56195 L307.770089,2526.56195 C306.957819,2526.56224 306.178717,2526.23977 305.604251,2525.66551 C305.029786,2525.09126 304.707037,2524.31227 304.707037,2523.5 L304.707037,2523.06195 C304.707037,2521.37088 306.077917,2520 307.768984,2520 Z M307.768984,2527.43695 L311.268984,2527.43695 L311.268984,2530.93695 C311.269277,2531.74915 310.94686,2532.5282 310.372681,2533.10266 C309.798503,2533.67711 309.019612,2533.9999 308.207405,2534 L307.768984,2534 C306.077917,2534 304.707037,2532.62912 304.707037,2530.93805 L304.707037,2530.5 C304.706744,2529.68773 305.029211,2528.90863 305.603469,2528.33416 C306.177728,2527.7597 306.956714,2527.43695 307.768984,2527.43695 L307.768984,2527.43695 Z M315.207036,2520 L315.645089,2520 C317.336156,2520 318.707036,2521.37088 318.707036,2523.06195 L318.707036,2523.5 C318.707329,2524.31227 318.384862,2525.09137 317.810603,2525.66584 C317.236345,2526.2403 316.457359,2526.56305 315.645089,2526.56305 L312.145089,2526.56305 L312.145089,2523.06305 C312.144796,2522.25085 312.467213,2521.4718 313.041391,2520.89734 C313.61557,2520.32289 314.394461,2520.0001 315.206668,2520 L315.207036,2520 L315.207036,2520 Z M312.143984,2527.43695 L315.643984,2527.43695 C316.456445,2527.43665 317.235715,2527.75927 317.810213,2528.33377 C318.38471,2528.90827 318.707329,2529.68754 318.707036,2530.5 L318.707036,2530.93805 C318.707036,2532.62912 317.336156,2534 315.645089,2534 L315.207036,2534 C314.394766,2534.00029 313.615664,2533.67783 313.041198,2533.10357 C312.466732,2532.52931 312.143984,2531.75032 312.143984,2530.93805 L312.143984,2527.43695 L312.143984,2527.43695 Z" id="未知"></path>
        </g>
    </g>
</svg>