<?xml version="1.0" standalone="no"?><!DOCTYPE svg PUBLIC "-//W3C//DTD SVG 1.1//EN" "http://www.w3.org/Graphics/SVG/1.1/DTD/svg11.dtd"><svg t="1734924934555" class="icon" viewBox="0 0 1024 1024" version="1.1" xmlns="http://www.w3.org/2000/svg" p-id="16174" xmlns:xlink="http://www.w3.org/1999/xlink" width="16" height="16"><path d="M670.529813 627.328c12.373333 12.672 12.373333 34.581333 0 48.426667-6.741333 6.912-14.613333 10.368-23.616 10.368-8.981333 0-16.853333-3.456-23.594666-10.389334l-120.32-124.522666-120.298667 123.392c-6.741333 6.912-14.613333 10.368-23.594667 10.368-9.002667 0-16.874667-3.456-23.616-10.368-12.373333-12.693333-12.373333-34.602667 0-48.448l121.429334-124.522667-121.429334-122.24c-12.373333-12.693333-12.373333-34.602667 0-48.426667a32.682667 32.682667 0 0 1 46.08 0l121.450667 124.544 121.408-124.544a32.682667 32.682667 0 0 1 46.101333 0c12.373333 12.672 12.373333 34.581333 0 48.426667l-120.298666 123.392 120.32 124.544z m249.6-479.722667l-41.6-1.152c-1.109333 0-92.181333-2.304-186.624-41.514666C595.201813 64.576 532.247147 18.453333 532.247147 17.301333l-24.746667-17.28-24.746667 18.432s-62.933333 47.274667-159.637333 87.637334C228.695147 145.301333 137.601813 147.626667 136.471147 147.626667L96.001813 148.757333v426.666667c-1.130667 213.333333 267.584 439.36 411.52 439.36 143.893333 0 412.608-226.026667 412.608-440.533333v-426.666667z" fill="#cd201f" p-id="16175"></path></svg>